<?xml version="1.0" encoding="UTF-8" standalone="no"?>
<!DOCTYPE svg PUBLIC "-//W3C//DTD SVG 1.1//EN"
 "http://www.w3.org/Graphics/SVG/1.1/DTD/svg11.dtd">
<!-- Generated by graphviz version 2.40.1 (20161225.0304)
 -->
<!-- Title: snakemake_dag Pages: 1 -->
<svg width="849pt" height="980pt"
 viewBox="0.00 0.00 848.50 980.00" xmlns="http://www.w3.org/2000/svg" xmlns:xlink="http://www.w3.org/1999/xlink">
<g id="graph0" class="graph" transform="scale(1 1) rotate(0) translate(4 976)">
<title>snakemake_dag</title>
<polygon fill="#ffffff" stroke="transparent" points="-4,4 -4,-976 844.5,-976 844.5,4 -4,4"/>
<!-- 0 -->
<g id="node1" class="node">
<title>0</title>
<path fill="none" stroke="#8fd856" stroke-width="2" d="M435.5,-36C435.5,-36 405.5,-36 405.5,-36 399.5,-36 393.5,-30 393.5,-24 393.5,-24 393.5,-12 393.5,-12 393.5,-6 399.5,0 405.5,0 405.5,0 435.5,0 435.5,0 441.5,0 447.5,-6 447.5,-12 447.5,-12 447.5,-24 447.5,-24 447.5,-30 441.5,-36 435.5,-36"/>
<text text-anchor="middle" x="420.5" y="-15.5" font-family="sans" font-size="10.00" fill="#000000">all</text>
</g>
<!-- 1 -->
<g id="node2" class="node">
<title>1</title>
<path fill="none" stroke="#56a9d8" stroke-width="2" d="M150.5,-180C150.5,-180 40.5,-180 40.5,-180 34.5,-180 28.5,-174 28.5,-168 28.5,-168 28.5,-156 28.5,-156 28.5,-150 34.5,-144 40.5,-144 40.5,-144 150.5,-144 150.5,-144 156.5,-144 162.5,-150 162.5,-156 162.5,-156 162.5,-168 162.5,-168 162.5,-174 156.5,-180 150.5,-180"/>
<text text-anchor="middle" x="95.5" y="-159.5" font-family="sans" font-size="10.00" fill="#000000">fix_family_csv_columns</text>
</g>
<!-- 1&#45;&gt;0 -->
<g id="edge5" class="edge">
<title>1&#45;&gt;0</title>
<path fill="none" stroke="#c0c0c0" stroke-width="2" d="M98.6607,-143.7218C103.2447,-123.0064 113.8119,-89.8133 136.5,-72 174.3456,-42.2859 314.8203,-26.7896 382.9561,-20.8824"/>
<polygon fill="#c0c0c0" stroke="#c0c0c0" stroke-width="2" points="383.5727,-24.3429 393.2436,-20.0159 382.9851,-17.3676 383.5727,-24.3429"/>
</g>
<!-- 2 -->
<g id="node3" class="node">
<title>2</title>
<path fill="none" stroke="#56d8d0" stroke-width="2" d="M325,-108C325,-108 158,-108 158,-108 152,-108 146,-102 146,-96 146,-96 146,-84 146,-84 146,-78 152,-72 158,-72 158,-72 325,-72 325,-72 331,-72 337,-78 337,-84 337,-84 337,-96 337,-96 337,-102 331,-108 325,-108"/>
<text text-anchor="middle" x="241.5" y="-87.5" font-family="sans" font-size="10.00" fill="#000000">convert_vep_vcf_to_csv_per_family</text>
</g>
<!-- 2&#45;&gt;0 -->
<g id="edge3" class="edge">
<title>2&#45;&gt;0</title>
<path fill="none" stroke="#c0c0c0" stroke-width="2" d="M286.6693,-71.8314C316.7791,-59.7201 355.8444,-44.0067 383.9872,-32.6867"/>
<polygon fill="#c0c0c0" stroke="#c0c0c0" stroke-width="2" points="385.482,-35.858 393.4535,-28.879 382.8697,-29.3637 385.482,-35.858"/>
</g>
<!-- 3 -->
<g id="node4" class="node">
<title>3</title>
<path fill="none" stroke="#80d856" stroke-width="2" d="M428.5,-396C428.5,-396 398.5,-396 398.5,-396 392.5,-396 386.5,-390 386.5,-384 386.5,-384 386.5,-372 386.5,-372 386.5,-366 392.5,-360 398.5,-360 398.5,-360 428.5,-360 428.5,-360 434.5,-360 440.5,-366 440.5,-372 440.5,-372 440.5,-384 440.5,-384 440.5,-390 434.5,-396 428.5,-396"/>
<text text-anchor="middle" x="413.5" y="-375.5" font-family="sans" font-size="10.00" fill="#000000">multiqc</text>
</g>
<!-- 3&#45;&gt;0 -->
<g id="edge4" class="edge">
<title>3&#45;&gt;0</title>
<path fill="none" stroke="#c0c0c0" stroke-width="2" d="M421.5588,-359.7668C432.7134,-332.8248 451.5,-280.5405 451.5,-234 451.5,-234 451.5,-234 451.5,-162 451.5,-121.0037 439.3433,-74.8829 430.2554,-46.1326"/>
<polygon fill="#c0c0c0" stroke="#c0c0c0" stroke-width="2" points="433.4998,-44.7919 427.0743,-36.3679 426.8441,-46.9603 433.4998,-44.7919"/>
</g>
<!-- 4 -->
<g id="node5" class="node">
<title>4</title>
<path fill="none" stroke="#9fd856" stroke-width="2" d="M411.5,-108C411.5,-108 367.5,-108 367.5,-108 361.5,-108 355.5,-102 355.5,-96 355.5,-96 355.5,-84 355.5,-84 355.5,-78 361.5,-72 367.5,-72 367.5,-72 411.5,-72 411.5,-72 417.5,-72 423.5,-78 423.5,-84 423.5,-84 423.5,-96 423.5,-96 423.5,-102 417.5,-108 411.5,-108"/>
<text text-anchor="middle" x="389.5" y="-87.5" font-family="sans" font-size="10.00" fill="#000000">sex_check</text>
</g>
<!-- 4&#45;&gt;0 -->
<g id="edge1" class="edge">
<title>4&#45;&gt;0</title>
<path fill="none" stroke="#c0c0c0" stroke-width="2" d="M397.3226,-71.8314C400.7109,-63.9617 404.7541,-54.5712 408.5076,-45.8533"/>
<polygon fill="#c0c0c0" stroke="#c0c0c0" stroke-width="2" points="411.8321,-46.9822 412.5721,-36.4133 405.4027,-44.214 411.8321,-46.9822"/>
</g>
<!-- 5 -->
<g id="node6" class="node">
<title>5</title>
<path fill="none" stroke="#569ad8" stroke-width="2" d="M743.5,-540C743.5,-540 655.5,-540 655.5,-540 649.5,-540 643.5,-534 643.5,-528 643.5,-528 643.5,-516 643.5,-516 643.5,-510 649.5,-504 655.5,-504 655.5,-504 743.5,-504 743.5,-504 749.5,-504 755.5,-510 755.5,-516 755.5,-516 755.5,-528 755.5,-528 755.5,-534 749.5,-540 743.5,-540"/>
<text text-anchor="middle" x="699.5" y="-519.5" font-family="sans" font-size="10.00" fill="#000000">get_exon_coverage</text>
</g>
<!-- 5&#45;&gt;0 -->
<g id="edge6" class="edge">
<title>5&#45;&gt;0</title>
<path fill="none" stroke="#c0c0c0" stroke-width="2" d="M694.7344,-503.9623C687.9975,-476.8344 676.5,-423.8236 676.5,-378 676.5,-378 676.5,-378 676.5,-162 676.5,-63.0532 529.4252,-31.3733 458.2307,-21.8343"/>
<polygon fill="#c0c0c0" stroke="#c0c0c0" stroke-width="2" points="458.2552,-18.3099 447.8965,-20.5342 457.3814,-25.2552 458.2552,-18.3099"/>
</g>
<!-- 6 -->
<g id="node7" class="node">
<title>6</title>
<path fill="none" stroke="#56d8b1" stroke-width="2" d="M799,-324C799,-324 718,-324 718,-324 712,-324 706,-318 706,-312 706,-312 706,-300 706,-300 706,-294 712,-288 718,-288 718,-288 799,-288 799,-288 805,-288 811,-294 811,-300 811,-300 811,-312 811,-312 811,-318 805,-324 799,-324"/>
<text text-anchor="middle" x="758.5" y="-303.5" font-family="sans" font-size="10.00" fill="#000000">get_snp_coverage</text>
</g>
<!-- 6&#45;&gt;0 -->
<g id="edge2" class="edge">
<title>6&#45;&gt;0</title>
<path fill="none" stroke="#c0c0c0" stroke-width="2" d="M759.0951,-287.8583C759.4812,-243.7447 753.9197,-130.2216 690.5,-72 656.9759,-41.2236 523.9641,-26.3562 457.9972,-20.7576"/>
<polygon fill="#c0c0c0" stroke="#c0c0c0" stroke-width="2" points="457.8848,-17.2367 447.6322,-19.9076 457.3126,-24.2133 457.8848,-17.2367"/>
</g>
<!-- 7 -->
<g id="node8" class="node">
<title>7</title>
<path fill="none" stroke="#56d882" stroke-width="2" d="M136.5,-252C136.5,-252 54.5,-252 54.5,-252 48.5,-252 42.5,-246 42.5,-240 42.5,-240 42.5,-228 42.5,-228 42.5,-222 48.5,-216 54.5,-216 54.5,-216 136.5,-216 136.5,-216 142.5,-216 148.5,-222 148.5,-228 148.5,-228 148.5,-240 148.5,-240 148.5,-246 142.5,-252 136.5,-252"/>
<text text-anchor="middle" x="95.5" y="-231.5" font-family="sans" font-size="10.00" fill="#000000">create_family_csv</text>
</g>
<!-- 7&#45;&gt;1 -->
<g id="edge7" class="edge">
<title>7&#45;&gt;1</title>
<path fill="none" stroke="#c0c0c0" stroke-width="2" d="M95.5,-215.8314C95.5,-208.131 95.5,-198.9743 95.5,-190.4166"/>
<polygon fill="#c0c0c0" stroke="#c0c0c0" stroke-width="2" points="99.0001,-190.4132 95.5,-180.4133 92.0001,-190.4133 99.0001,-190.4132"/>
</g>
<!-- 8 -->
<g id="node9" class="node">
<title>8</title>
<path fill="none" stroke="#d87556" stroke-width="2" d="M332,-180C332,-180 193,-180 193,-180 187,-180 181,-174 181,-168 181,-168 181,-156 181,-156 181,-150 187,-144 193,-144 193,-144 332,-144 332,-144 338,-144 344,-150 344,-156 344,-156 344,-168 344,-168 344,-174 338,-180 332,-180"/>
<text text-anchor="middle" x="262.5" y="-159.5" font-family="sans" font-size="10.00" fill="#000000">compress_and_index_vep_vcf</text>
</g>
<!-- 8&#45;&gt;2 -->
<g id="edge8" class="edge">
<title>8&#45;&gt;2</title>
<path fill="none" stroke="#c0c0c0" stroke-width="2" d="M257.2008,-143.8314C254.9302,-136.0463 252.2254,-126.7729 249.706,-118.1347"/>
<polygon fill="#c0c0c0" stroke="#c0c0c0" stroke-width="2" points="253.0306,-117.0332 246.8705,-108.4133 246.3106,-118.9933 253.0306,-117.0332"/>
</g>
<!-- 8&#45;&gt;4 -->
<g id="edge15" class="edge">
<title>8&#45;&gt;4</title>
<path fill="none" stroke="#c0c0c0" stroke-width="2" d="M294.5475,-143.8314C310.942,-134.5368 331.0786,-123.1208 348.5829,-113.1971"/>
<polygon fill="#c0c0c0" stroke="#c0c0c0" stroke-width="2" points="350.4897,-116.1395 357.4628,-108.1628 347.0374,-110.05 350.4897,-116.1395"/>
</g>
<!-- 9 -->
<g id="node10" class="node">
<title>9</title>
<path fill="none" stroke="#567bd8" stroke-width="2" d="M538,-612C538,-612 413,-612 413,-612 407,-612 401,-606 401,-600 401,-600 401,-588 401,-588 401,-582 407,-576 413,-576 413,-576 538,-576 538,-576 544,-576 550,-582 550,-588 550,-588 550,-600 550,-600 550,-606 544,-612 538,-612"/>
<text text-anchor="middle" x="475.5" y="-591.5" font-family="sans" font-size="10.00" fill="#000000">collect_insert_size_metrics</text>
</g>
<!-- 9&#45;&gt;3 -->
<g id="edge14" class="edge">
<title>9&#45;&gt;3</title>
<path fill="none" stroke="#c0c0c0" stroke-width="2" d="M468.532,-575.853C459.3835,-551.5596 443.2292,-507.0002 432.5,-468 426.8609,-447.5023 421.9487,-423.9852 418.5323,-406.1319"/>
<polygon fill="#c0c0c0" stroke="#c0c0c0" stroke-width="2" points="421.9317,-405.2692 416.6525,-396.0834 415.0511,-406.5565 421.9317,-405.2692"/>
</g>
<!-- 10 -->
<g id="node11" class="node">
<title>10</title>
<path fill="none" stroke="#d85656" stroke-width="2" d="M321,-684C321,-684 238,-684 238,-684 232,-684 226,-678 226,-672 226,-672 226,-660 226,-660 226,-654 232,-648 238,-648 238,-648 321,-648 321,-648 327,-648 333,-654 333,-660 333,-660 333,-672 333,-672 333,-678 327,-684 321,-684"/>
<text text-anchor="middle" x="279.5" y="-663.5" font-family="sans" font-size="10.00" fill="#000000">collect_hs_metrics</text>
</g>
<!-- 10&#45;&gt;3 -->
<g id="edge12" class="edge">
<title>10&#45;&gt;3</title>
<path fill="none" stroke="#c0c0c0" stroke-width="2" d="M266.529,-647.9839C260.0707,-637.9209 252.9251,-624.8499 249.5,-612 228.7131,-534.0149 217.4073,-490.0292 273.5,-432 300.9095,-403.6443 344.8595,-389.9413 376.2024,-383.4772"/>
<polygon fill="#c0c0c0" stroke="#c0c0c0" stroke-width="2" points="377.1382,-386.8619 386.3063,-381.5518 375.8278,-379.9856 377.1382,-386.8619"/>
</g>
<!-- 11 -->
<g id="node12" class="node">
<title>11</title>
<path fill="none" stroke="#d8bc56" stroke-width="2" d="M575.5,-468C575.5,-468 453.5,-468 453.5,-468 447.5,-468 441.5,-462 441.5,-456 441.5,-456 441.5,-444 441.5,-444 441.5,-438 447.5,-432 453.5,-432 453.5,-432 575.5,-432 575.5,-432 581.5,-432 587.5,-438 587.5,-444 587.5,-444 587.5,-456 587.5,-456 587.5,-462 581.5,-468 575.5,-468"/>
<text text-anchor="middle" x="514.5" y="-447.5" font-family="sans" font-size="10.00" fill="#000000">collect_alignment_metrics</text>
</g>
<!-- 11&#45;&gt;3 -->
<g id="edge9" class="edge">
<title>11&#45;&gt;3</title>
<path fill="none" stroke="#c0c0c0" stroke-width="2" d="M489.0134,-431.8314C476.3341,-422.7927 460.8404,-411.7476 447.1945,-402.0198"/>
<polygon fill="#c0c0c0" stroke="#c0c0c0" stroke-width="2" points="449.1529,-399.1176 438.9784,-396.1628 445.0895,-404.8176 449.1529,-399.1176"/>
</g>
<!-- 12 -->
<g id="node13" class="node">
<title>12</title>
<path fill="none" stroke="#56c9d8" stroke-width="2" d="M621.5,-756C621.5,-756 475.5,-756 475.5,-756 469.5,-756 463.5,-750 463.5,-744 463.5,-744 463.5,-732 463.5,-732 463.5,-726 469.5,-720 475.5,-720 475.5,-720 621.5,-720 621.5,-720 627.5,-720 633.5,-726 633.5,-732 633.5,-732 633.5,-744 633.5,-744 633.5,-750 627.5,-756 621.5,-756"/>
<text text-anchor="middle" x="548.5" y="-735.5" font-family="sans" font-size="10.00" fill="#000000">merge_and_remove_duplicates</text>
</g>
<!-- 12&#45;&gt;3 -->
<g id="edge11" class="edge">
<title>12&#45;&gt;3</title>
<path fill="none" stroke="#c0c0c0" stroke-width="2" d="M563.3695,-719.7109C583.1082,-693.5269 615.5,-643.081 615.5,-594 615.5,-594 615.5,-594 615.5,-522 615.5,-481.1184 624.2453,-462.0251 596.5,-432 576.7599,-410.6379 497.9856,-393.1726 450.4606,-384.3105"/>
<polygon fill="#c0c0c0" stroke="#c0c0c0" stroke-width="2" points="451.0054,-380.8522 440.5396,-382.5006 449.749,-387.7385 451.0054,-380.8522"/>
</g>
<!-- 12&#45;&gt;5 -->
<g id="edge16" class="edge">
<title>12&#45;&gt;5</title>
<path fill="none" stroke="#c0c0c0" stroke-width="2" d="M585.0433,-719.7604C600.3535,-710.6873 617.3732,-698.5346 629.5,-684 663.2082,-643.5989 683.1926,-584.4992 692.6965,-549.9698"/>
<polygon fill="#c0c0c0" stroke="#c0c0c0" stroke-width="2" points="696.1361,-550.6533 695.3132,-540.0905 689.3694,-548.8611 696.1361,-550.6533"/>
</g>
<!-- 12&#45;&gt;9 -->
<g id="edge20" class="edge">
<title>12&#45;&gt;9</title>
<path fill="none" stroke="#c0c0c0" stroke-width="2" d="M539.2545,-719.7623C526.6388,-694.8764 503.9306,-650.0822 489.2972,-621.2165"/>
<polygon fill="#c0c0c0" stroke="#c0c0c0" stroke-width="2" points="492.3139,-619.4264 484.6704,-612.0896 486.0703,-622.5916 492.3139,-619.4264"/>
</g>
<!-- 12&#45;&gt;10 -->
<g id="edge22" class="edge">
<title>12&#45;&gt;10</title>
<path fill="none" stroke="#c0c0c0" stroke-width="2" d="M480.9672,-719.9243C438.6076,-708.5864 384.3503,-694.064 342.8157,-682.947"/>
<polygon fill="#c0c0c0" stroke="#c0c0c0" stroke-width="2" points="343.6493,-679.5469 333.0844,-680.3423 341.8394,-686.3089 343.6493,-679.5469"/>
</g>
<!-- 12&#45;&gt;11 -->
<g id="edge23" class="edge">
<title>12&#45;&gt;11</title>
<path fill="none" stroke="#c0c0c0" stroke-width="2" d="M552.5248,-719.8751C558.5871,-689.7722 568.4489,-627.6637 559.5,-576 553.4103,-540.8428 538.4267,-502.5113 527.4151,-477.473"/>
<polygon fill="#c0c0c0" stroke="#c0c0c0" stroke-width="2" points="530.5597,-475.9316 523.27,-468.2432 524.1741,-478.7994 530.5597,-475.9316"/>
</g>
<!-- 15 -->
<g id="node16" class="node">
<title>15</title>
<path fill="none" stroke="#61d856" stroke-width="2" d="M828.5,-684C828.5,-684 720.5,-684 720.5,-684 714.5,-684 708.5,-678 708.5,-672 708.5,-672 708.5,-660 708.5,-660 708.5,-654 714.5,-648 720.5,-648 720.5,-648 828.5,-648 828.5,-648 834.5,-648 840.5,-654 840.5,-660 840.5,-660 840.5,-672 840.5,-672 840.5,-678 834.5,-684 828.5,-684"/>
<text text-anchor="middle" x="774.5" y="-663.5" font-family="sans" font-size="10.00" fill="#000000">get_per_base_coverage</text>
</g>
<!-- 12&#45;&gt;15 -->
<g id="edge29" class="edge">
<title>12&#45;&gt;15</title>
<path fill="none" stroke="#c0c0c0" stroke-width="2" d="M605.2376,-719.9243C636.4018,-709.9959 675.2311,-697.6255 707.8356,-687.2382"/>
<polygon fill="#c0c0c0" stroke="#c0c0c0" stroke-width="2" points="709.2733,-690.4536 717.739,-684.0831 707.1484,-683.7839 709.2733,-690.4536"/>
</g>
<!-- 29 -->
<g id="node30" class="node">
<title>29</title>
<path fill="none" stroke="#56d8a2" stroke-width="2" d="M475.5,-684C475.5,-684 373.5,-684 373.5,-684 367.5,-684 361.5,-678 361.5,-672 361.5,-672 361.5,-660 361.5,-660 361.5,-654 367.5,-648 373.5,-648 373.5,-648 475.5,-648 475.5,-648 481.5,-648 487.5,-654 487.5,-660 487.5,-660 487.5,-672 487.5,-672 487.5,-678 481.5,-684 475.5,-684"/>
<text text-anchor="middle" x="424.5" y="-663.5" font-family="sans" font-size="10.00" fill="#000000">call_variants_platypus</text>
</g>
<!-- 12&#45;&gt;29 -->
<g id="edge41" class="edge">
<title>12&#45;&gt;29</title>
<path fill="none" stroke="#c0c0c0" stroke-width="2" d="M517.2096,-719.8314C501.2023,-710.5368 481.5414,-699.1208 464.4506,-689.1971"/>
<polygon fill="#c0c0c0" stroke="#c0c0c0" stroke-width="2" points="466.1858,-686.1575 455.7804,-684.1628 462.6708,-692.211 466.1858,-686.1575"/>
</g>
<!-- 13 -->
<g id="node14" class="node">
<title>13</title>
<path fill="none" stroke="#d6d856" stroke-width="2" d="M266.5,-828C266.5,-828 236.5,-828 236.5,-828 230.5,-828 224.5,-822 224.5,-816 224.5,-816 224.5,-804 224.5,-804 224.5,-798 230.5,-792 236.5,-792 236.5,-792 266.5,-792 266.5,-792 272.5,-792 278.5,-798 278.5,-804 278.5,-804 278.5,-816 278.5,-816 278.5,-822 272.5,-828 266.5,-828"/>
<text text-anchor="middle" x="251.5" y="-807.5" font-family="sans" font-size="10.00" fill="#000000">fastqc</text>
</g>
<!-- 13&#45;&gt;3 -->
<g id="edge13" class="edge">
<title>13&#45;&gt;3</title>
<path fill="none" stroke="#c0c0c0" stroke-width="2" d="M237.2443,-791.8904C229.8779,-781.7999 221.2519,-768.7326 215.5,-756 198.4571,-718.2731 191.5,-707.3978 191.5,-666 191.5,-666 191.5,-666 191.5,-522 191.5,-476.2416 206.0336,-460.913 241.5,-432 280.6369,-400.0948 338.7563,-386.9567 376.389,-381.6028"/>
<polygon fill="#c0c0c0" stroke="#c0c0c0" stroke-width="2" points="376.9656,-385.0573 386.4273,-380.2901 376.0579,-378.1164 376.9656,-385.0573"/>
</g>
<!-- 14 -->
<g id="node15" class="node">
<title>14</title>
<path fill="none" stroke="#70d856" stroke-width="2" d="M368.5,-468C368.5,-468 294.5,-468 294.5,-468 288.5,-468 282.5,-462 282.5,-456 282.5,-456 282.5,-444 282.5,-444 282.5,-438 288.5,-432 294.5,-432 294.5,-432 368.5,-432 368.5,-432 374.5,-432 380.5,-438 380.5,-444 380.5,-444 380.5,-456 380.5,-456 380.5,-462 374.5,-468 368.5,-468"/>
<text text-anchor="middle" x="331.5" y="-447.5" font-family="sans" font-size="10.00" fill="#000000">relatedness_test</text>
</g>
<!-- 14&#45;&gt;3 -->
<g id="edge10" class="edge">
<title>14&#45;&gt;3</title>
<path fill="none" stroke="#c0c0c0" stroke-width="2" d="M352.1921,-431.8314C362.1948,-423.0485 374.355,-412.3712 385.1999,-402.8489"/>
<polygon fill="#c0c0c0" stroke="#c0c0c0" stroke-width="2" points="387.6094,-405.3909 392.8146,-396.1628 382.9908,-400.1308 387.6094,-405.3909"/>
</g>
<!-- 15&#45;&gt;6 -->
<g id="edge17" class="edge">
<title>15&#45;&gt;6</title>
<path fill="none" stroke="#c0c0c0" stroke-width="2" d="M776.3648,-647.8374C779.001,-620.55 783.5,-567.3383 783.5,-522 783.5,-522 783.5,-522 783.5,-450 783.5,-409.0964 773.587,-362.6076 766.2454,-333.7868"/>
<polygon fill="#c0c0c0" stroke="#c0c0c0" stroke-width="2" points="769.6037,-332.7952 763.68,-324.0111 762.833,-334.572 769.6037,-332.7952"/>
</g>
<!-- 16 -->
<g id="node17" class="node">
<title>16</title>
<path fill="none" stroke="#afd856" stroke-width="2" d="M139.5,-324C139.5,-324 51.5,-324 51.5,-324 45.5,-324 39.5,-318 39.5,-312 39.5,-312 39.5,-300 39.5,-300 39.5,-294 45.5,-288 51.5,-288 51.5,-288 139.5,-288 139.5,-288 145.5,-288 151.5,-294 151.5,-300 151.5,-300 151.5,-312 151.5,-312 151.5,-318 145.5,-324 139.5,-324"/>
<text text-anchor="middle" x="95.5" y="-303.5" font-family="sans" font-size="10.00" fill="#000000">split_vcf_by_family</text>
</g>
<!-- 16&#45;&gt;7 -->
<g id="edge18" class="edge">
<title>16&#45;&gt;7</title>
<path fill="none" stroke="#c0c0c0" stroke-width="2" d="M95.5,-287.8314C95.5,-280.131 95.5,-270.9743 95.5,-262.4166"/>
<polygon fill="#c0c0c0" stroke="#c0c0c0" stroke-width="2" points="99.0001,-262.4132 95.5,-252.4133 92.0001,-262.4133 99.0001,-262.4132"/>
</g>
<!-- 17 -->
<g id="node18" class="node">
<title>17</title>
<path fill="none" stroke="#5663d8" stroke-width="2" d="M288,-252C288,-252 229,-252 229,-252 223,-252 217,-246 217,-240 217,-240 217,-228 217,-228 217,-222 223,-216 229,-216 229,-216 288,-216 288,-216 294,-216 300,-222 300,-228 300,-228 300,-240 300,-240 300,-246 294,-252 288,-252"/>
<text text-anchor="middle" x="258.5" y="-231.5" font-family="sans" font-size="10.00" fill="#000000">annotate_vep</text>
</g>
<!-- 17&#45;&gt;8 -->
<g id="edge19" class="edge">
<title>17&#45;&gt;8</title>
<path fill="none" stroke="#c0c0c0" stroke-width="2" d="M259.5094,-215.8314C259.9372,-208.131 260.4459,-198.9743 260.9213,-190.4166"/>
<polygon fill="#c0c0c0" stroke="#c0c0c0" stroke-width="2" points="264.4169,-190.592 261.477,-180.4133 257.4276,-190.2037 264.4169,-190.592"/>
</g>
<!-- 18 -->
<g id="node19" class="node">
<title>18</title>
<path fill="none" stroke="#56d873" stroke-width="2" d="M322.5,-756C322.5,-756 236.5,-756 236.5,-756 230.5,-756 224.5,-750 224.5,-744 224.5,-744 224.5,-732 224.5,-732 224.5,-726 230.5,-720 236.5,-720 236.5,-720 322.5,-720 322.5,-720 328.5,-720 334.5,-726 334.5,-732 334.5,-732 334.5,-744 334.5,-744 334.5,-750 328.5,-756 322.5,-756"/>
<text text-anchor="middle" x="279.5" y="-735.5" font-family="sans" font-size="10.00" fill="#000000">create_interval_file</text>
</g>
<!-- 18&#45;&gt;10 -->
<g id="edge21" class="edge">
<title>18&#45;&gt;10</title>
<path fill="none" stroke="#c0c0c0" stroke-width="2" d="M279.5,-719.8314C279.5,-712.131 279.5,-702.9743 279.5,-694.4166"/>
<polygon fill="#c0c0c0" stroke="#c0c0c0" stroke-width="2" points="283.0001,-694.4132 279.5,-684.4133 276.0001,-694.4133 283.0001,-694.4132"/>
</g>
<!-- 19 -->
<g id="node20" class="node">
<title>19</title>
<path fill="none" stroke="#d89c56" stroke-width="2" d="M484.5,-900C484.5,-900 442.5,-900 442.5,-900 436.5,-900 430.5,-894 430.5,-888 430.5,-888 430.5,-876 430.5,-876 430.5,-870 436.5,-864 442.5,-864 442.5,-864 484.5,-864 484.5,-864 490.5,-864 496.5,-870 496.5,-876 496.5,-876 496.5,-888 496.5,-888 496.5,-894 490.5,-900 484.5,-900"/>
<text text-anchor="middle" x="463.5" y="-879.5" font-family="sans" font-size="10.00" fill="#000000">bwa_align</text>
</g>
<!-- 19&#45;&gt;12 -->
<g id="edge25" class="edge">
<title>19&#45;&gt;12</title>
<path fill="none" stroke="#c0c0c0" stroke-width="2" d="M464.1181,-863.8134C465.5141,-844.666 469.9049,-814.268 483.5,-792 490.3767,-780.7363 500.4462,-770.7211 510.6155,-762.4676"/>
<polygon fill="#c0c0c0" stroke="#c0c0c0" stroke-width="2" points="512.9324,-765.1015 518.7335,-756.2359 508.6699,-759.5488 512.9324,-765.1015"/>
</g>
<!-- 20 -->
<g id="node21" class="node">
<title>20</title>
<path fill="none" stroke="#c6d856" stroke-width="2" d="M593,-828C593,-828 504,-828 504,-828 498,-828 492,-822 492,-816 492,-816 492,-804 492,-804 492,-798 498,-792 504,-792 504,-792 593,-792 593,-792 599,-792 605,-798 605,-804 605,-804 605,-816 605,-816 605,-822 599,-828 593,-828"/>
<text text-anchor="middle" x="548.5" y="-807.5" font-family="sans" font-size="10.00" fill="#000000">index_original_bam</text>
</g>
<!-- 19&#45;&gt;20 -->
<g id="edge33" class="edge">
<title>19&#45;&gt;20</title>
<path fill="none" stroke="#c0c0c0" stroke-width="2" d="M484.9491,-863.8314C495.3178,-855.0485 507.9229,-844.3712 519.1646,-834.8489"/>
<polygon fill="#c0c0c0" stroke="#c0c0c0" stroke-width="2" points="521.6895,-837.297 527.0578,-828.1628 517.1651,-831.9556 521.6895,-837.297"/>
</g>
<!-- 20&#45;&gt;12 -->
<g id="edge24" class="edge">
<title>20&#45;&gt;12</title>
<path fill="none" stroke="#c0c0c0" stroke-width="2" d="M548.5,-791.8314C548.5,-784.131 548.5,-774.9743 548.5,-766.4166"/>
<polygon fill="#c0c0c0" stroke="#c0c0c0" stroke-width="2" points="552.0001,-766.4132 548.5,-756.4133 545.0001,-766.4133 552.0001,-766.4132"/>
</g>
<!-- 21 -->
<g id="node22" class="node">
<title>21</title>
<path fill="none" stroke="#568ad8" stroke-width="2" d="M397.5,-972C397.5,-972 367.5,-972 367.5,-972 361.5,-972 355.5,-966 355.5,-960 355.5,-960 355.5,-948 355.5,-948 355.5,-942 361.5,-936 367.5,-936 367.5,-936 397.5,-936 397.5,-936 403.5,-936 409.5,-942 409.5,-948 409.5,-948 409.5,-960 409.5,-960 409.5,-966 403.5,-972 397.5,-972"/>
<text text-anchor="middle" x="382.5" y="-951.5" font-family="sans" font-size="10.00" fill="#000000">fastp</text>
</g>
<!-- 21&#45;&gt;13 -->
<g id="edge26" class="edge">
<title>21&#45;&gt;13</title>
<path fill="none" stroke="#c0c0c0" stroke-width="2" d="M365.9088,-935.7623C342.8758,-910.4436 301.0964,-864.5182 274.9027,-835.7251"/>
<polygon fill="#c0c0c0" stroke="#c0c0c0" stroke-width="2" points="277.2748,-833.1315 267.9565,-828.0896 272.0969,-837.842 277.2748,-833.1315"/>
</g>
<!-- 21&#45;&gt;19 -->
<g id="edge32" class="edge">
<title>21&#45;&gt;19</title>
<path fill="none" stroke="#c0c0c0" stroke-width="2" d="M402.9397,-935.8314C412.8205,-927.0485 424.8324,-916.3712 435.545,-906.8489"/>
<polygon fill="#c0c0c0" stroke="#c0c0c0" stroke-width="2" points="437.918,-909.4224 443.0668,-900.1628 433.2674,-904.1906 437.918,-909.4224"/>
</g>
<!-- 22 -->
<g id="node23" class="node">
<title>22</title>
<path fill="none" stroke="#56d8c1" stroke-width="2" d="M385.5,-540C385.5,-540 269.5,-540 269.5,-540 263.5,-540 257.5,-534 257.5,-528 257.5,-528 257.5,-516 257.5,-516 257.5,-510 263.5,-504 269.5,-504 269.5,-504 385.5,-504 385.5,-504 391.5,-504 397.5,-510 397.5,-516 397.5,-516 397.5,-528 397.5,-528 397.5,-534 391.5,-540 385.5,-540"/>
<text text-anchor="middle" x="327.5" y="-519.5" font-family="sans" font-size="10.00" fill="#000000">compress_and_index_vcf</text>
</g>
<!-- 22&#45;&gt;14 -->
<g id="edge27" class="edge">
<title>22&#45;&gt;14</title>
<path fill="none" stroke="#c0c0c0" stroke-width="2" d="M328.5094,-503.8314C328.9372,-496.131 329.4459,-486.9743 329.9213,-478.4166"/>
<polygon fill="#c0c0c0" stroke="#c0c0c0" stroke-width="2" points="333.4169,-478.592 330.477,-468.4133 326.4276,-478.2037 333.4169,-478.592"/>
</g>
<!-- 27 -->
<g id="node28" class="node">
<title>27</title>
<path fill="none" stroke="#d88556" stroke-width="2" d="M151.5,-468C151.5,-468 39.5,-468 39.5,-468 33.5,-468 27.5,-462 27.5,-456 27.5,-456 27.5,-444 27.5,-444 27.5,-438 33.5,-432 39.5,-432 39.5,-432 151.5,-432 151.5,-432 157.5,-432 163.5,-438 163.5,-444 163.5,-444 163.5,-456 163.5,-456 163.5,-462 157.5,-468 151.5,-468"/>
<text text-anchor="middle" x="95.5" y="-447.5" font-family="sans" font-size="10.00" fill="#000000">annotate_vcf_with_gene</text>
</g>
<!-- 22&#45;&gt;27 -->
<g id="edge38" class="edge">
<title>22&#45;&gt;27</title>
<path fill="none" stroke="#c0c0c0" stroke-width="2" d="M269.2561,-503.9243C237.1266,-493.9531 197.0606,-481.5188 163.5018,-471.104"/>
<polygon fill="#c0c0c0" stroke="#c0c0c0" stroke-width="2" points="164.356,-467.7045 153.7679,-468.0831 162.2811,-474.3899 164.356,-467.7045"/>
</g>
<!-- 23 -->
<g id="node24" class="node">
<title>23</title>
<path fill="none" stroke="#56d892" stroke-width="2" d="M813,-756C813,-756 736,-756 736,-756 730,-756 724,-750 724,-744 724,-744 724,-732 724,-732 724,-726 730,-720 736,-720 736,-720 813,-720 813,-720 819,-720 825,-726 825,-732 825,-732 825,-744 825,-744 825,-750 819,-756 813,-756"/>
<text text-anchor="middle" x="774.5" y="-735.5" font-family="sans" font-size="10.00" fill="#000000">sort_capture_bed</text>
</g>
<!-- 23&#45;&gt;15 -->
<g id="edge28" class="edge">
<title>23&#45;&gt;15</title>
<path fill="none" stroke="#c0c0c0" stroke-width="2" d="M774.5,-719.8314C774.5,-712.131 774.5,-702.9743 774.5,-694.4166"/>
<polygon fill="#c0c0c0" stroke="#c0c0c0" stroke-width="2" points="778.0001,-694.4132 774.5,-684.4133 771.0001,-694.4133 778.0001,-694.4132"/>
</g>
<!-- 24 -->
<g id="node25" class="node">
<title>24</title>
<path fill="none" stroke="#56d85b" stroke-width="2" d="M152,-396C152,-396 39,-396 39,-396 33,-396 27,-390 27,-384 27,-384 27,-372 27,-372 27,-366 33,-360 39,-360 39,-360 152,-360 152,-360 158,-360 164,-366 164,-372 164,-372 164,-384 164,-384 164,-390 158,-396 152,-396"/>
<text text-anchor="middle" x="95.5" y="-375.5" font-family="sans" font-size="10.00" fill="#000000">select_relevant_variants</text>
</g>
<!-- 24&#45;&gt;16 -->
<g id="edge30" class="edge">
<title>24&#45;&gt;16</title>
<path fill="none" stroke="#c0c0c0" stroke-width="2" d="M95.5,-359.8314C95.5,-352.131 95.5,-342.9743 95.5,-334.4166"/>
<polygon fill="#c0c0c0" stroke="#c0c0c0" stroke-width="2" points="99.0001,-334.4132 95.5,-324.4133 92.0001,-334.4133 99.0001,-334.4132"/>
</g>
<!-- 25 -->
<g id="node26" class="node">
<title>25</title>
<path fill="none" stroke="#d8ac56" stroke-width="2" d="M312.5,-324C312.5,-324 186.5,-324 186.5,-324 180.5,-324 174.5,-318 174.5,-312 174.5,-312 174.5,-300 174.5,-300 174.5,-294 180.5,-288 186.5,-288 186.5,-288 312.5,-288 312.5,-288 318.5,-288 324.5,-294 324.5,-300 324.5,-300 324.5,-312 324.5,-312 324.5,-318 318.5,-324 312.5,-324"/>
<text text-anchor="middle" x="249.5" y="-303.5" font-family="sans" font-size="10.00" fill="#000000">decompose_and_normalise</text>
</g>
<!-- 25&#45;&gt;17 -->
<g id="edge31" class="edge">
<title>25&#45;&gt;17</title>
<path fill="none" stroke="#c0c0c0" stroke-width="2" d="M251.7711,-287.8314C252.7336,-280.131 253.8782,-270.9743 254.9479,-262.4166"/>
<polygon fill="#c0c0c0" stroke="#c0c0c0" stroke-width="2" points="258.4309,-262.7702 256.1983,-252.4133 251.4849,-261.9019 258.4309,-262.7702"/>
</g>
<!-- 26 -->
<g id="node27" class="node">
<title>26</title>
<path fill="none" stroke="#d86656" stroke-width="2" d="M371,-612C371,-612 270,-612 270,-612 264,-612 258,-606 258,-600 258,-600 258,-588 258,-588 258,-582 264,-576 270,-576 270,-576 371,-576 371,-576 377,-576 383,-582 383,-588 383,-588 383,-600 383,-600 383,-606 377,-612 371,-612"/>
<text text-anchor="middle" x="320.5" y="-591.5" font-family="sans" font-size="10.00" fill="#000000">update_sequence_dict</text>
</g>
<!-- 26&#45;&gt;22 -->
<g id="edge34" class="edge">
<title>26&#45;&gt;22</title>
<path fill="none" stroke="#c0c0c0" stroke-width="2" d="M322.2664,-575.8314C323.015,-568.131 323.9053,-558.9743 324.7373,-550.4166"/>
<polygon fill="#c0c0c0" stroke="#c0c0c0" stroke-width="2" points="328.2256,-550.7051 325.7098,-540.4133 321.2585,-550.0276 328.2256,-550.7051"/>
</g>
<!-- 27&#45;&gt;24 -->
<g id="edge35" class="edge">
<title>27&#45;&gt;24</title>
<path fill="none" stroke="#c0c0c0" stroke-width="2" d="M95.5,-431.8314C95.5,-424.131 95.5,-414.9743 95.5,-406.4166"/>
<polygon fill="#c0c0c0" stroke="#c0c0c0" stroke-width="2" points="99.0001,-406.4132 95.5,-396.4133 92.0001,-406.4133 99.0001,-406.4132"/>
</g>
<!-- 28 -->
<g id="node29" class="node">
<title>28</title>
<path fill="none" stroke="#56b9d8" stroke-width="2" d="M272,-396C272,-396 203,-396 203,-396 197,-396 191,-390 191,-384 191,-384 191,-372 191,-372 191,-366 197,-360 203,-360 203,-360 272,-360 272,-360 278,-360 284,-366 284,-372 284,-372 284,-384 284,-384 284,-390 278,-396 272,-396"/>
<text text-anchor="middle" x="237.5" y="-375.5" font-family="sans" font-size="10.00" fill="#000000">fix_vcf_headers</text>
</g>
<!-- 27&#45;&gt;28 -->
<g id="edge40" class="edge">
<title>27&#45;&gt;28</title>
<path fill="none" stroke="#c0c0c0" stroke-width="2" d="M131.3326,-431.8314C149.9157,-422.4089 172.7989,-410.8062 192.5565,-400.7883"/>
<polygon fill="#c0c0c0" stroke="#c0c0c0" stroke-width="2" points="194.3427,-403.8069 201.6789,-396.1628 191.177,-397.5635 194.3427,-403.8069"/>
</g>
<!-- 28&#45;&gt;25 -->
<g id="edge36" class="edge">
<title>28&#45;&gt;25</title>
<path fill="none" stroke="#c0c0c0" stroke-width="2" d="M240.5281,-359.8314C241.8115,-352.131 243.3376,-342.9743 244.7639,-334.4166"/>
<polygon fill="#c0c0c0" stroke="#c0c0c0" stroke-width="2" points="248.2394,-334.8526 246.4311,-324.4133 241.3347,-333.7018 248.2394,-334.8526"/>
</g>
<!-- 29&#45;&gt;26 -->
<g id="edge37" class="edge">
<title>29&#45;&gt;26</title>
<path fill="none" stroke="#c0c0c0" stroke-width="2" d="M398.2564,-647.8314C385.2005,-638.7927 369.2465,-627.7476 355.1953,-618.0198"/>
<polygon fill="#c0c0c0" stroke="#c0c0c0" stroke-width="2" points="356.9494,-614.9773 346.7352,-612.1628 352.9649,-620.7326 356.9494,-614.9773"/>
</g>
<!-- 30 -->
<g id="node31" class="node">
<title>30</title>
<path fill="none" stroke="#d8cb56" stroke-width="2" d="M151,-540C151,-540 12,-540 12,-540 6,-540 0,-534 0,-528 0,-528 0,-516 0,-516 0,-510 6,-504 12,-504 12,-504 151,-504 151,-504 157,-504 163,-510 163,-516 163,-516 163,-528 163,-528 163,-534 157,-540 151,-540"/>
<text text-anchor="middle" x="81.5" y="-519.5" font-family="sans" font-size="10.00" fill="#000000">compress_and_index_bed_file</text>
</g>
<!-- 30&#45;&gt;27 -->
<g id="edge39" class="edge">
<title>30&#45;&gt;27</title>
<path fill="none" stroke="#c0c0c0" stroke-width="2" d="M85.0328,-503.8314C86.5301,-496.131 88.3105,-486.9743 89.9745,-478.4166"/>
<polygon fill="#c0c0c0" stroke="#c0c0c0" stroke-width="2" points="93.4465,-478.8975 91.9196,-468.4133 86.5752,-477.5614 93.4465,-478.8975"/>
</g>
</g>
</svg>
