<?xml version="1.0" encoding="UTF-8" standalone="no"?>
<!DOCTYPE svg PUBLIC "-//W3C//DTD SVG 1.1//EN"
 "http://www.w3.org/Graphics/SVG/1.1/DTD/svg11.dtd">
<!-- Generated by graphviz version 2.38.0 (20140413.2041)
 -->
<!-- Title: snakemake_dag Pages: 1 -->
<svg width="1931pt" height="1064pt"
 viewBox="0.00 0.00 1931.42 1064.00" xmlns="http://www.w3.org/2000/svg" xmlns:xlink="http://www.w3.org/1999/xlink">
<g id="graph0" class="graph" transform="scale(1 1) rotate(0) translate(4 1060)">
<title>snakemake_dag</title>
<polygon fill="white" stroke="none" points="-4,4 -4,-1060 1927.42,-1060 1927.42,4 -4,4"/>
<!-- 0 -->
<g id="node1" class="node"><title>0</title>
<path fill="none" stroke="#97d856" stroke-width="2" d="M884.321,-36C884.321,-36 854.321,-36 854.321,-36 848.321,-36 842.321,-30 842.321,-24 842.321,-24 842.321,-12 842.321,-12 842.321,-6 848.321,-0 854.321,-0 854.321,-0 884.321,-0 884.321,-0 890.321,-0 896.321,-6 896.321,-12 896.321,-12 896.321,-24 896.321,-24 896.321,-30 890.321,-36 884.321,-36"/>
<text text-anchor="middle" x="869.321" y="-15" font-family="sans" font-size="10.00">all</text>
</g>
<!-- 1 -->
<g id="node2" class="node"><title>1</title>
<path fill="none" stroke="#56c1d8" stroke-width="2" d="M375.321,-684C375.321,-684 345.321,-684 345.321,-684 339.321,-684 333.321,-678 333.321,-672 333.321,-672 333.321,-660 333.321,-660 333.321,-654 339.321,-648 345.321,-648 345.321,-648 375.321,-648 375.321,-648 381.321,-648 387.321,-654 387.321,-660 387.321,-660 387.321,-672 387.321,-672 387.321,-678 381.321,-684 375.321,-684"/>
<text text-anchor="middle" x="360.321" y="-663" font-family="sans" font-size="10.00">multiqc</text>
</g>
<!-- 1&#45;&gt;0 -->
<g id="edge1" class="edge"><title>1&#45;&gt;0</title>
<path fill="none" stroke="grey" stroke-width="2" d="M387.497,-662.621C486.529,-653.214 822.321,-614.568 822.321,-523 822.321,-523 822.321,-523 822.321,-161 822.321,-118.955 841.122,-73.2927 854.942,-45.4069"/>
<polygon fill="grey" stroke="grey" stroke-width="2" points="858.151,-46.8174 859.583,-36.3198 851.917,-43.6333 858.151,-46.8174"/>
</g>
<!-- 2 -->
<g id="node3" class="node"><title>2</title>
<path fill="none" stroke="#d6d856" stroke-width="2" d="M952.351,-108C952.351,-108 880.292,-108 880.292,-108 874.292,-108 868.292,-102 868.292,-96 868.292,-96 868.292,-84 868.292,-84 868.292,-78 874.292,-72 880.292,-72 880.292,-72 952.351,-72 952.351,-72 958.351,-72 964.351,-78 964.351,-84 964.351,-84 964.351,-96 964.351,-96 964.351,-102 958.351,-108 952.351,-108"/>
<text text-anchor="middle" x="916.321" y="-92" font-family="sans" font-size="10.00">create_family_csv</text>
<text text-anchor="middle" x="916.321" y="-82" font-family="sans" font-size="10.00">FAMID: FAM001</text>
</g>
<!-- 2&#45;&gt;0 -->
<g id="edge2" class="edge"><title>2&#45;&gt;0</title>
<path fill="none" stroke="grey" stroke-width="2" d="M904.704,-71.6966C899.183,-63.4741 892.475,-53.4832 886.39,-44.4207"/>
<polygon fill="grey" stroke="grey" stroke-width="2" points="889.286,-42.4555 880.806,-36.1043 883.474,-46.3576 889.286,-42.4555"/>
</g>
<!-- 3 -->
<g id="node4" class="node"><title>3</title>
<path fill="none" stroke="#d88556" stroke-width="2" d="M280.87,-756C280.87,-756 173.773,-756 173.773,-756 167.773,-756 161.773,-750 161.773,-744 161.773,-744 161.773,-732 161.773,-732 161.773,-726 167.773,-720 173.773,-720 173.773,-720 280.87,-720 280.87,-720 286.87,-720 292.87,-726 292.87,-732 292.87,-732 292.87,-744 292.87,-744 292.87,-750 286.87,-756 280.87,-756"/>
<text text-anchor="middle" x="227.321" y="-735" font-family="sans" font-size="10.00">collect_alignment_metrics</text>
</g>
<!-- 3&#45;&gt;1 -->
<g id="edge3" class="edge"><title>3&#45;&gt;1</title>
<path fill="none" stroke="grey" stroke-width="2" d="M259.857,-719.876C279.33,-709.627 304.115,-696.582 324.195,-686.014"/>
<polygon fill="grey" stroke="grey" stroke-width="2" points="325.834,-689.106 333.053,-681.352 322.574,-682.912 325.834,-689.106"/>
</g>
<!-- 4 -->
<g id="node5" class="node"><title>4</title>
<path fill="none" stroke="#d8c356" stroke-width="2" d="M853.31,-756C853.31,-756 741.333,-756 741.333,-756 735.333,-756 729.333,-750 729.333,-744 729.333,-744 729.333,-732 729.333,-732 729.333,-726 735.333,-720 741.333,-720 741.333,-720 853.31,-720 853.31,-720 859.31,-720 865.31,-726 865.31,-732 865.31,-732 865.31,-744 865.31,-744 865.31,-750 859.31,-756 853.31,-756"/>
<text text-anchor="middle" x="797.321" y="-735" font-family="sans" font-size="10.00">collect_insert_size_metrics</text>
</g>
<!-- 4&#45;&gt;1 -->
<g id="edge4" class="edge"><title>4&#45;&gt;1</title>
<path fill="none" stroke="grey" stroke-width="2" d="M729.42,-721.549C726.688,-721.011 723.98,-720.492 721.321,-720 603.904,-698.279 463.668,-679.81 397.885,-671.58"/>
<polygon fill="grey" stroke="grey" stroke-width="2" points="397.962,-668.063 387.607,-670.302 397.099,-675.009 397.962,-668.063"/>
</g>
<!-- 5 -->
<g id="node6" class="node"><title>5</title>
<path fill="none" stroke="#68d856" stroke-width="2" d="M113.321,-972C113.321,-972 83.3215,-972 83.3215,-972 77.3215,-972 71.3215,-966 71.3215,-960 71.3215,-960 71.3215,-948 71.3215,-948 71.3215,-942 77.3215,-936 83.3215,-936 83.3215,-936 113.321,-936 113.321,-936 119.321,-936 125.321,-942 125.321,-948 125.321,-948 125.321,-960 125.321,-960 125.321,-966 119.321,-972 113.321,-972"/>
<text text-anchor="middle" x="98.3215" y="-951" font-family="sans" font-size="10.00">fastqc</text>
</g>
<!-- 5&#45;&gt;1 -->
<g id="edge5" class="edge"><title>5&#45;&gt;1</title>
<path fill="none" stroke="grey" stroke-width="2" d="M82.5822,-935.95C46.0488,-894.309 -37.2249,-786.014 19.3215,-720 58.1144,-674.712 242.761,-667.809 322.977,-666.978"/>
<polygon fill="grey" stroke="grey" stroke-width="2" points="323.155,-670.477 333.127,-666.9 323.101,-663.477 323.155,-670.477"/>
</g>
<!-- 6 -->
<g id="node7" class="node"><title>6</title>
<path fill="none" stroke="#68d856" stroke-width="2" d="M301.321,-900C301.321,-900 271.321,-900 271.321,-900 265.321,-900 259.321,-894 259.321,-888 259.321,-888 259.321,-876 259.321,-876 259.321,-870 265.321,-864 271.321,-864 271.321,-864 301.321,-864 301.321,-864 307.321,-864 313.321,-870 313.321,-876 313.321,-876 313.321,-888 313.321,-888 313.321,-894 307.321,-900 301.321,-900"/>
<text text-anchor="middle" x="286.321" y="-879" font-family="sans" font-size="10.00">fastqc</text>
</g>
<!-- 6&#45;&gt;1 -->
<g id="edge6" class="edge"><title>6&#45;&gt;1</title>
<path fill="none" stroke="grey" stroke-width="2" d="M259.047,-875.459C180.849,-858.424 -34.1277,-802.91 36.3215,-720 72.7603,-677.116 245.753,-668.855 322.962,-667.319"/>
<polygon fill="grey" stroke="grey" stroke-width="2" points="323.258,-670.815 333.197,-667.145 323.138,-663.816 323.258,-670.815"/>
</g>
<!-- 7 -->
<g id="node8" class="node"><title>7</title>
<path fill="none" stroke="#d8c356" stroke-width="2" d="M551.31,-756C551.31,-756 439.333,-756 439.333,-756 433.333,-756 427.333,-750 427.333,-744 427.333,-744 427.333,-732 427.333,-732 427.333,-726 433.333,-720 439.333,-720 439.333,-720 551.31,-720 551.31,-720 557.31,-720 563.31,-726 563.31,-732 563.31,-732 563.31,-744 563.31,-744 563.31,-750 557.31,-756 551.31,-756"/>
<text text-anchor="middle" x="495.321" y="-735" font-family="sans" font-size="10.00">collect_insert_size_metrics</text>
</g>
<!-- 7&#45;&gt;1 -->
<g id="edge7" class="edge"><title>7&#45;&gt;1</title>
<path fill="none" stroke="grey" stroke-width="2" d="M462.297,-719.876C442.395,-709.557 417.028,-696.403 396.573,-685.797"/>
<polygon fill="grey" stroke="grey" stroke-width="2" points="398.047,-682.619 387.558,-681.123 394.825,-688.833 398.047,-682.619"/>
</g>
<!-- 8 -->
<g id="node9" class="node"><title>8</title>
<path fill="none" stroke="#d85656" stroke-width="2" d="M397.573,-756C397.573,-756 323.07,-756 323.07,-756 317.07,-756 311.07,-750 311.07,-744 311.07,-744 311.07,-732 311.07,-732 311.07,-726 317.07,-720 323.07,-720 323.07,-720 397.573,-720 397.573,-720 403.573,-720 409.573,-726 409.573,-732 409.573,-732 409.573,-744 409.573,-744 409.573,-750 403.573,-756 397.573,-756"/>
<text text-anchor="middle" x="360.321" y="-735" font-family="sans" font-size="10.00">collect_hs_metrics</text>
</g>
<!-- 8&#45;&gt;1 -->
<g id="edge8" class="edge"><title>8&#45;&gt;1</title>
<path fill="none" stroke="grey" stroke-width="2" d="M360.321,-719.697C360.321,-711.983 360.321,-702.712 360.321,-694.112"/>
<polygon fill="grey" stroke="grey" stroke-width="2" points="363.822,-694.104 360.321,-684.104 356.822,-694.104 363.822,-694.104"/>
</g>
<!-- 9 -->
<g id="node10" class="node"><title>9</title>
<path fill="none" stroke="#d85656" stroke-width="2" d="M131.573,-756C131.573,-756 57.0702,-756 57.0702,-756 51.0702,-756 45.0702,-750 45.0702,-744 45.0702,-744 45.0702,-732 45.0702,-732 45.0702,-726 51.0702,-720 57.0702,-720 57.0702,-720 131.573,-720 131.573,-720 137.573,-720 143.573,-726 143.573,-732 143.573,-732 143.573,-744 143.573,-744 143.573,-750 137.573,-756 131.573,-756"/>
<text text-anchor="middle" x="94.3215" y="-735" font-family="sans" font-size="10.00">collect_hs_metrics</text>
</g>
<!-- 9&#45;&gt;1 -->
<g id="edge9" class="edge"><title>9&#45;&gt;1</title>
<path fill="none" stroke="grey" stroke-width="2" d="M143.649,-722.412C146.58,-721.586 149.488,-720.776 152.321,-720 211.962,-703.667 281.677,-686.24 323.349,-675.999"/>
<polygon fill="grey" stroke="grey" stroke-width="2" points="324.437,-679.336 333.316,-673.555 322.77,-672.537 324.437,-679.336"/>
</g>
<!-- 10 -->
<g id="node11" class="node"><title>10</title>
<path fill="none" stroke="#d88556" stroke-width="2" d="M699.87,-756C699.87,-756 592.773,-756 592.773,-756 586.773,-756 580.773,-750 580.773,-744 580.773,-744 580.773,-732 580.773,-732 580.773,-726 586.773,-720 592.773,-720 592.773,-720 699.87,-720 699.87,-720 705.87,-720 711.87,-726 711.87,-732 711.87,-732 711.87,-744 711.87,-744 711.87,-750 705.87,-756 699.87,-756"/>
<text text-anchor="middle" x="646.321" y="-735" font-family="sans" font-size="10.00">collect_alignment_metrics</text>
</g>
<!-- 10&#45;&gt;1 -->
<g id="edge10" class="edge"><title>10&#45;&gt;1</title>
<path fill="none" stroke="grey" stroke-width="2" d="M580.707,-720.941C523.825,-707.018 443.567,-687.375 397.241,-676.036"/>
<polygon fill="grey" stroke="grey" stroke-width="2" points="397.883,-672.59 387.337,-673.612 396.219,-679.389 397.883,-672.59"/>
</g>
<!-- 11 -->
<g id="node12" class="node"><title>11</title>
<path fill="none" stroke="#c6d856" stroke-width="2" d="M973.242,-180C973.242,-180 897.401,-180 897.401,-180 891.401,-180 885.401,-174 885.401,-168 885.401,-168 885.401,-156 885.401,-156 885.401,-150 891.401,-144 897.401,-144 897.401,-144 973.242,-144 973.242,-144 979.242,-144 985.242,-150 985.242,-156 985.242,-156 985.242,-168 985.242,-168 985.242,-174 979.242,-180 973.242,-180"/>
<text text-anchor="middle" x="935.321" y="-159" font-family="sans" font-size="10.00">split_vcf_by_family</text>
</g>
<!-- 11&#45;&gt;2 -->
<g id="edge11" class="edge"><title>11&#45;&gt;2</title>
<path fill="none" stroke="grey" stroke-width="2" d="M930.625,-143.697C928.508,-135.898 925.96,-126.509 923.604,-117.829"/>
<polygon fill="grey" stroke="grey" stroke-width="2" points="926.961,-116.838 920.964,-108.104 920.206,-118.672 926.961,-116.838"/>
</g>
<!-- 12 -->
<g id="node13" class="node"><title>12</title>
<path fill="none" stroke="#5682d8" stroke-width="2" d="M779.409,-828C779.409,-828 647.234,-828 647.234,-828 641.234,-828 635.234,-822 635.234,-816 635.234,-816 635.234,-804 635.234,-804 635.234,-798 641.234,-792 647.234,-792 647.234,-792 779.409,-792 779.409,-792 785.409,-792 791.409,-798 791.409,-804 791.409,-804 791.409,-816 791.409,-816 791.409,-822 785.409,-828 779.409,-828"/>
<text text-anchor="middle" x="713.321" y="-807" font-family="sans" font-size="10.00">merge_and_remove_duplicates</text>
</g>
<!-- 12&#45;&gt;3 -->
<g id="edge12" class="edge"><title>12&#45;&gt;3</title>
<path fill="none" stroke="grey" stroke-width="2" d="M634.96,-801.127C554.198,-792.506 424.496,-777.252 302.955,-756.018"/>
<polygon fill="grey" stroke="grey" stroke-width="2" points="303.556,-752.57 293.1,-754.28 302.34,-759.464 303.556,-752.57"/>
</g>
<!-- 12&#45;&gt;7 -->
<g id="edge16" class="edge"><title>12&#45;&gt;7</title>
<path fill="none" stroke="grey" stroke-width="2" d="M660.271,-791.966C629.547,-782.1 590.686,-769.622 558.401,-759.255"/>
<polygon fill="grey" stroke="grey" stroke-width="2" points="559.201,-755.836 548.609,-756.111 557.061,-762.501 559.201,-755.836"/>
</g>
<!-- 12&#45;&gt;9 -->
<g id="edge20" class="edge"><title>12&#45;&gt;9</title>
<path fill="none" stroke="grey" stroke-width="2" d="M635.066,-806.32C528.055,-801.609 330.131,-789.163 153.519,-756.018"/>
<polygon fill="grey" stroke="grey" stroke-width="2" points="154.004,-752.548 143.526,-754.116 152.695,-759.425 154.004,-752.548"/>
</g>
<!-- 37 -->
<g id="node38" class="node"><title>37</title>
<path fill="none" stroke="#56a9d8" stroke-width="2" d="M1034.52,-756C1034.52,-756 986.127,-756 986.127,-756 980.127,-756 974.127,-750 974.127,-744 974.127,-744 974.127,-732 974.127,-732 974.127,-726 980.127,-720 986.127,-720 986.127,-720 1034.52,-720 1034.52,-720 1040.52,-720 1046.52,-726 1046.52,-732 1046.52,-732 1046.52,-744 1046.52,-744 1046.52,-750 1040.52,-756 1034.52,-756"/>
<text text-anchor="middle" x="1010.32" y="-740" font-family="sans" font-size="10.00">create_gvcfs</text>
<text text-anchor="middle" x="1010.32" y="-730" font-family="sans" font-size="10.00">chr: 16</text>
</g>
<!-- 12&#45;&gt;37 -->
<g id="edge64" class="edge"><title>12&#45;&gt;37</title>
<path fill="none" stroke="grey" stroke-width="2" d="M791.497,-795.535C841.393,-786.196 907.197,-772.491 964.321,-756 964.421,-755.971 964.521,-755.942 964.621,-755.913"/>
<polygon fill="grey" stroke="grey" stroke-width="2" points="965.579,-759.281 974.076,-752.951 963.487,-752.601 965.579,-759.281"/>
</g>
<!-- 39 -->
<g id="node40" class="node"><title>39</title>
<path fill="none" stroke="#56a9d8" stroke-width="2" d="M943.516,-756C943.516,-756 895.127,-756 895.127,-756 889.127,-756 883.127,-750 883.127,-744 883.127,-744 883.127,-732 883.127,-732 883.127,-726 889.127,-720 895.127,-720 895.127,-720 943.516,-720 943.516,-720 949.516,-720 955.516,-726 955.516,-732 955.516,-732 955.516,-744 955.516,-744 955.516,-750 949.516,-756 943.516,-756"/>
<text text-anchor="middle" x="919.321" y="-740" font-family="sans" font-size="10.00">create_gvcfs</text>
<text text-anchor="middle" x="919.321" y="-730" font-family="sans" font-size="10.00">chr: X</text>
</g>
<!-- 12&#45;&gt;39 -->
<g id="edge66" class="edge"><title>12&#45;&gt;39</title>
<path fill="none" stroke="grey" stroke-width="2" d="M767.185,-791.911C796.289,-782.528 833.035,-770.446 873.5,-756.228"/>
<polygon fill="grey" stroke="grey" stroke-width="2" points="874.757,-759.496 883.022,-752.867 872.427,-752.895 874.757,-759.496"/>
</g>
<!-- 42 -->
<g id="node43" class="node"><title>42</title>
<path fill="none" stroke="#56a9d8" stroke-width="2" d="M1125.52,-756C1125.52,-756 1077.13,-756 1077.13,-756 1071.13,-756 1065.13,-750 1065.13,-744 1065.13,-744 1065.13,-732 1065.13,-732 1065.13,-726 1071.13,-720 1077.13,-720 1077.13,-720 1125.52,-720 1125.52,-720 1131.52,-720 1137.52,-726 1137.52,-732 1137.52,-732 1137.52,-744 1137.52,-744 1137.52,-750 1131.52,-756 1125.52,-756"/>
<text text-anchor="middle" x="1101.32" y="-740" font-family="sans" font-size="10.00">create_gvcfs</text>
<text text-anchor="middle" x="1101.32" y="-730" font-family="sans" font-size="10.00">chr: 9</text>
</g>
<!-- 12&#45;&gt;42 -->
<g id="edge72" class="edge"><title>12&#45;&gt;42</title>
<path fill="none" stroke="grey" stroke-width="2" d="M791.648,-801.378C859.238,-793.771 959.42,-780.039 1055.04,-755.759"/>
<polygon fill="grey" stroke="grey" stroke-width="2" points="1056.07,-759.109 1064.87,-753.22 1054.32,-752.331 1056.07,-759.109"/>
</g>
<!-- 43 -->
<g id="node44" class="node"><title>43</title>
<path fill="none" stroke="#56a9d8" stroke-width="2" d="M1435.52,-756C1435.52,-756 1387.13,-756 1387.13,-756 1381.13,-756 1375.13,-750 1375.13,-744 1375.13,-744 1375.13,-732 1375.13,-732 1375.13,-726 1381.13,-720 1387.13,-720 1387.13,-720 1435.52,-720 1435.52,-720 1441.52,-720 1447.52,-726 1447.52,-732 1447.52,-732 1447.52,-744 1447.52,-744 1447.52,-750 1441.52,-756 1435.52,-756"/>
<text text-anchor="middle" x="1411.32" y="-740" font-family="sans" font-size="10.00">create_gvcfs</text>
<text text-anchor="middle" x="1411.32" y="-730" font-family="sans" font-size="10.00">chr: 7</text>
</g>
<!-- 12&#45;&gt;43 -->
<g id="edge74" class="edge"><title>12&#45;&gt;43</title>
<path fill="none" stroke="grey" stroke-width="2" d="M791.46,-805.321C935.96,-798.087 1240.7,-780.716 1364.9,-755.604"/>
<polygon fill="grey" stroke="grey" stroke-width="2" points="1365.88,-758.973 1374.93,-753.468 1364.42,-752.126 1365.88,-758.973"/>
</g>
<!-- 13 -->
<g id="node14" class="node"><title>13</title>
<path fill="none" stroke="#5682d8" stroke-width="2" d="M1209.41,-828C1209.41,-828 1077.23,-828 1077.23,-828 1071.23,-828 1065.23,-822 1065.23,-816 1065.23,-816 1065.23,-804 1065.23,-804 1065.23,-798 1071.23,-792 1077.23,-792 1077.23,-792 1209.41,-792 1209.41,-792 1215.41,-792 1221.41,-798 1221.41,-804 1221.41,-804 1221.41,-816 1221.41,-816 1221.41,-822 1215.41,-828 1209.41,-828"/>
<text text-anchor="middle" x="1143.32" y="-807" font-family="sans" font-size="10.00">merge_and_remove_duplicates</text>
</g>
<!-- 13&#45;&gt;4 -->
<g id="edge13" class="edge"><title>13&#45;&gt;4</title>
<path fill="none" stroke="grey" stroke-width="2" d="M1065.24,-794.103C1013.91,-784.196 945.024,-770.685 875.183,-756.158"/>
<polygon fill="grey" stroke="grey" stroke-width="2" points="875.828,-752.717 865.324,-754.101 874.398,-759.57 875.828,-752.717"/>
</g>
<!-- 13&#45;&gt;8 -->
<g id="edge18" class="edge"><title>13&#45;&gt;8</title>
<path fill="none" stroke="grey" stroke-width="2" d="M1065.04,-805.38C907.965,-797.78 558.268,-779.081 419.525,-755.935"/>
<polygon fill="grey" stroke="grey" stroke-width="2" points="419.965,-752.459 409.512,-754.189 418.762,-759.355 419.965,-752.459"/>
</g>
<!-- 13&#45;&gt;10 -->
<g id="edge21" class="edge"><title>13&#45;&gt;10</title>
<path fill="none" stroke="grey" stroke-width="2" d="M1065,-801.584C982.072,-793.188 847.186,-777.989 722.154,-756.237"/>
<polygon fill="grey" stroke="grey" stroke-width="2" points="722.473,-752.74 712.018,-754.456 721.262,-759.634 722.473,-752.74"/>
</g>
<!-- 36 -->
<g id="node37" class="node"><title>36</title>
<path fill="none" stroke="#56a9d8" stroke-width="2" d="M1344.52,-756C1344.52,-756 1296.13,-756 1296.13,-756 1290.13,-756 1284.13,-750 1284.13,-744 1284.13,-744 1284.13,-732 1284.13,-732 1284.13,-726 1290.13,-720 1296.13,-720 1296.13,-720 1344.52,-720 1344.52,-720 1350.52,-720 1356.52,-726 1356.52,-732 1356.52,-732 1356.52,-744 1356.52,-744 1356.52,-750 1350.52,-756 1344.52,-756"/>
<text text-anchor="middle" x="1320.32" y="-740" font-family="sans" font-size="10.00">create_gvcfs</text>
<text text-anchor="middle" x="1320.32" y="-730" font-family="sans" font-size="10.00">chr: 16</text>
</g>
<!-- 13&#45;&gt;36 -->
<g id="edge62" class="edge"><title>13&#45;&gt;36</title>
<path fill="none" stroke="grey" stroke-width="2" d="M1186.62,-791.876C1213.24,-781.35 1247.31,-767.875 1274.4,-757.163"/>
<polygon fill="grey" stroke="grey" stroke-width="2" points="1276.02,-760.284 1284.03,-753.352 1273.45,-753.775 1276.02,-760.284"/>
</g>
<!-- 40 -->
<g id="node41" class="node"><title>40</title>
<path fill="none" stroke="#56a9d8" stroke-width="2" d="M1216.52,-756C1216.52,-756 1168.13,-756 1168.13,-756 1162.13,-756 1156.13,-750 1156.13,-744 1156.13,-744 1156.13,-732 1156.13,-732 1156.13,-726 1162.13,-720 1168.13,-720 1168.13,-720 1216.52,-720 1216.52,-720 1222.52,-720 1228.52,-726 1228.52,-732 1228.52,-732 1228.52,-744 1228.52,-744 1228.52,-750 1222.52,-756 1216.52,-756"/>
<text text-anchor="middle" x="1192.32" y="-740" font-family="sans" font-size="10.00">create_gvcfs</text>
<text text-anchor="middle" x="1192.32" y="-730" font-family="sans" font-size="10.00">chr: X</text>
</g>
<!-- 13&#45;&gt;40 -->
<g id="edge68" class="edge"><title>13&#45;&gt;40</title>
<path fill="none" stroke="grey" stroke-width="2" d="M1155.43,-791.697C1161.19,-783.474 1168.18,-773.483 1174.53,-764.421"/>
<polygon fill="grey" stroke="grey" stroke-width="2" points="1177.48,-766.304 1180.35,-756.104 1171.75,-762.29 1177.48,-766.304"/>
</g>
<!-- 41 -->
<g id="node42" class="node"><title>41</title>
<path fill="none" stroke="#56a9d8" stroke-width="2" d="M1526.52,-756C1526.52,-756 1478.13,-756 1478.13,-756 1472.13,-756 1466.13,-750 1466.13,-744 1466.13,-744 1466.13,-732 1466.13,-732 1466.13,-726 1472.13,-720 1478.13,-720 1478.13,-720 1526.52,-720 1526.52,-720 1532.52,-720 1538.52,-726 1538.52,-732 1538.52,-732 1538.52,-744 1538.52,-744 1538.52,-750 1532.52,-756 1526.52,-756"/>
<text text-anchor="middle" x="1502.32" y="-740" font-family="sans" font-size="10.00">create_gvcfs</text>
<text text-anchor="middle" x="1502.32" y="-730" font-family="sans" font-size="10.00">chr: 9</text>
</g>
<!-- 13&#45;&gt;41 -->
<g id="edge70" class="edge"><title>13&#45;&gt;41</title>
<path fill="none" stroke="grey" stroke-width="2" d="M1221.69,-799.851C1285.52,-791.416 1377.65,-777.003 1456.32,-756 1456.42,-755.973 1456.52,-755.946 1456.62,-755.919"/>
<polygon fill="grey" stroke="grey" stroke-width="2" points="1457.53,-759.301 1466.11,-753.091 1455.53,-752.592 1457.53,-759.301"/>
</g>
<!-- 44 -->
<g id="node45" class="node"><title>44</title>
<path fill="none" stroke="#56a9d8" stroke-width="2" d="M1692.52,-756C1692.52,-756 1644.13,-756 1644.13,-756 1638.13,-756 1632.13,-750 1632.13,-744 1632.13,-744 1632.13,-732 1632.13,-732 1632.13,-726 1638.13,-720 1644.13,-720 1644.13,-720 1692.52,-720 1692.52,-720 1698.52,-720 1704.52,-726 1704.52,-732 1704.52,-732 1704.52,-744 1704.52,-744 1704.52,-750 1698.52,-756 1692.52,-756"/>
<text text-anchor="middle" x="1668.32" y="-740" font-family="sans" font-size="10.00">create_gvcfs</text>
<text text-anchor="middle" x="1668.32" y="-730" font-family="sans" font-size="10.00">chr: 7</text>
</g>
<!-- 13&#45;&gt;44 -->
<g id="edge76" class="edge"><title>13&#45;&gt;44</title>
<path fill="none" stroke="grey" stroke-width="2" d="M1221.55,-798.952C1302.96,-788.446 1434.12,-771.378 1547.32,-756 1572.02,-752.645 1599.54,-748.788 1622.08,-745.597"/>
<polygon fill="grey" stroke="grey" stroke-width="2" points="1622.65,-749.051 1632.06,-744.182 1621.67,-742.121 1622.65,-749.051"/>
</g>
<!-- 14 -->
<g id="node15" class="node"><title>14</title>
<path fill="none" stroke="#566bd8" stroke-width="2" d="M271.952,-1056C271.952,-1056 164.691,-1056 164.691,-1056 158.691,-1056 152.691,-1050 152.691,-1044 152.691,-1044 152.691,-1020 152.691,-1020 152.691,-1014 158.691,-1008 164.691,-1008 164.691,-1008 271.952,-1008 271.952,-1008 277.952,-1008 283.952,-1014 283.952,-1020 283.952,-1020 283.952,-1044 283.952,-1044 283.952,-1050 277.952,-1056 271.952,-1056"/>
<text text-anchor="middle" x="218.321" y="-1044" font-family="sans" font-size="10.00">fastp</text>
<text text-anchor="middle" x="218.321" y="-1034" font-family="sans" font-size="10.00">lane: L001</text>
<text text-anchor="middle" x="218.321" y="-1024" font-family="sans" font-size="10.00">sample_name: 14M02709</text>
<text text-anchor="middle" x="218.321" y="-1014" font-family="sans" font-size="10.00">sample_number: S2</text>
</g>
<!-- 14&#45;&gt;5 -->
<g id="edge14" class="edge"><title>14&#45;&gt;5</title>
<path fill="none" stroke="grey" stroke-width="2" d="M181.992,-1007.99C166.768,-998.35 149.123,-987.175 133.973,-977.579"/>
<polygon fill="grey" stroke="grey" stroke-width="2" points="135.699,-974.53 125.378,-972.136 131.954,-980.443 135.699,-974.53"/>
</g>
<!-- 19 -->
<g id="node20" class="node"><title>19</title>
<path fill="none" stroke="#56d86b" stroke-width="2" d="M652.856,-972C652.856,-972 615.787,-972 615.787,-972 609.787,-972 603.787,-966 603.787,-960 603.787,-960 603.787,-948 603.787,-948 603.787,-942 609.787,-936 615.787,-936 615.787,-936 652.856,-936 652.856,-936 658.856,-936 664.856,-942 664.856,-948 664.856,-948 664.856,-960 664.856,-960 664.856,-966 658.856,-972 652.856,-972"/>
<text text-anchor="middle" x="634.321" y="-951" font-family="sans" font-size="10.00">bwa_align</text>
</g>
<!-- 14&#45;&gt;19 -->
<g id="edge29" class="edge"><title>14&#45;&gt;19</title>
<path fill="none" stroke="grey" stroke-width="2" d="M284.238,-1018.96C371.256,-1003.06 521.826,-975.552 593.77,-962.408"/>
<polygon fill="grey" stroke="grey" stroke-width="2" points="594.589,-965.817 603.797,-960.577 593.331,-958.931 594.589,-965.817"/>
</g>
<!-- 15 -->
<g id="node16" class="node"><title>15</title>
<path fill="none" stroke="#566bd8" stroke-width="2" d="M660.952,-1056C660.952,-1056 553.691,-1056 553.691,-1056 547.691,-1056 541.691,-1050 541.691,-1044 541.691,-1044 541.691,-1020 541.691,-1020 541.691,-1014 547.691,-1008 553.691,-1008 553.691,-1008 660.952,-1008 660.952,-1008 666.952,-1008 672.952,-1014 672.952,-1020 672.952,-1020 672.952,-1044 672.952,-1044 672.952,-1050 666.952,-1056 660.952,-1056"/>
<text text-anchor="middle" x="607.321" y="-1044" font-family="sans" font-size="10.00">fastp</text>
<text text-anchor="middle" x="607.321" y="-1034" font-family="sans" font-size="10.00">lane: L001</text>
<text text-anchor="middle" x="607.321" y="-1024" font-family="sans" font-size="10.00">sample_name: 14M01888</text>
<text text-anchor="middle" x="607.321" y="-1014" font-family="sans" font-size="10.00">sample_number: S1</text>
</g>
<!-- 15&#45;&gt;6 -->
<g id="edge15" class="edge"><title>15&#45;&gt;6</title>
<path fill="none" stroke="grey" stroke-width="2" d="M557.165,-1007.88C492.157,-977.902 380.339,-926.348 322.829,-899.832"/>
<polygon fill="grey" stroke="grey" stroke-width="2" points="323.96,-896.499 313.413,-895.491 321.029,-902.856 323.96,-896.499"/>
</g>
<!-- 20 -->
<g id="node21" class="node"><title>20</title>
<path fill="none" stroke="#56d86b" stroke-width="2" d="M1082.86,-972C1082.86,-972 1045.79,-972 1045.79,-972 1039.79,-972 1033.79,-966 1033.79,-960 1033.79,-960 1033.79,-948 1033.79,-948 1033.79,-942 1039.79,-936 1045.79,-936 1045.79,-936 1082.86,-936 1082.86,-936 1088.86,-936 1094.86,-942 1094.86,-948 1094.86,-948 1094.86,-960 1094.86,-960 1094.86,-966 1088.86,-972 1082.86,-972"/>
<text text-anchor="middle" x="1064.32" y="-951" font-family="sans" font-size="10.00">bwa_align</text>
</g>
<!-- 15&#45;&gt;20 -->
<g id="edge30" class="edge"><title>15&#45;&gt;20</title>
<path fill="none" stroke="grey" stroke-width="2" d="M673.285,-1020.03C769.211,-1004.08 944.373,-974.948 1023.55,-961.781"/>
<polygon fill="grey" stroke="grey" stroke-width="2" points="1024.32,-965.2 1033.61,-960.107 1023.17,-958.295 1024.32,-965.2"/>
</g>
<!-- 16 -->
<g id="node17" class="node"><title>16</title>
<path fill="none" stroke="#56d8d8" stroke-width="2" d="M266.257,-828C266.257,-828 190.386,-828 190.386,-828 184.386,-828 178.386,-822 178.386,-816 178.386,-816 178.386,-804 178.386,-804 178.386,-798 184.386,-792 190.386,-792 190.386,-792 266.257,-792 266.257,-792 272.257,-792 278.257,-798 278.257,-804 278.257,-804 278.257,-816 278.257,-816 278.257,-822 272.257,-828 266.257,-828"/>
<text text-anchor="middle" x="228.321" y="-807" font-family="sans" font-size="10.00">create_interval_file</text>
</g>
<!-- 16&#45;&gt;8 -->
<g id="edge17" class="edge"><title>16&#45;&gt;8</title>
<path fill="none" stroke="grey" stroke-width="2" d="M260.612,-791.876C278.191,-782.554 300.131,-770.919 318.951,-760.939"/>
<polygon fill="grey" stroke="grey" stroke-width="2" points="320.712,-763.967 327.907,-756.19 317.432,-757.783 320.712,-763.967"/>
</g>
<!-- 16&#45;&gt;9 -->
<g id="edge19" class="edge"><title>16&#45;&gt;9</title>
<path fill="none" stroke="grey" stroke-width="2" d="M195.541,-791.876C177.696,-782.554 155.424,-770.919 136.319,-760.939"/>
<polygon fill="grey" stroke="grey" stroke-width="2" points="137.712,-757.718 127.228,-756.19 134.471,-763.922 137.712,-757.718"/>
</g>
<!-- 17 -->
<g id="node18" class="node"><title>17</title>
<path fill="none" stroke="#80d856" stroke-width="2" d="M1021.16,-252C1021.16,-252 921.484,-252 921.484,-252 915.484,-252 909.484,-246 909.484,-240 909.484,-240 909.484,-228 909.484,-228 909.484,-222 915.484,-216 921.484,-216 921.484,-216 1021.16,-216 1021.16,-216 1027.16,-216 1033.16,-222 1033.16,-228 1033.16,-228 1033.16,-240 1033.16,-240 1033.16,-246 1027.16,-252 1021.16,-252"/>
<text text-anchor="middle" x="971.321" y="-231" font-family="sans" font-size="10.00">select_relevant_variants</text>
</g>
<!-- 17&#45;&gt;11 -->
<g id="edge22" class="edge"><title>17&#45;&gt;11</title>
<path fill="none" stroke="grey" stroke-width="2" d="M962.423,-215.697C958.325,-207.728 953.373,-198.1 948.829,-189.264"/>
<polygon fill="grey" stroke="grey" stroke-width="2" points="951.804,-187.396 944.118,-180.104 945.579,-190.598 951.804,-187.396"/>
</g>
<!-- 18 -->
<g id="node19" class="node"><title>18</title>
<path fill="none" stroke="#56d882" stroke-width="2" d="M673.545,-900C673.545,-900 595.097,-900 595.097,-900 589.097,-900 583.097,-894 583.097,-888 583.097,-888 583.097,-876 583.097,-876 583.097,-870 589.097,-864 595.097,-864 595.097,-864 673.545,-864 673.545,-864 679.545,-864 685.545,-870 685.545,-876 685.545,-876 685.545,-888 685.545,-888 685.545,-894 679.545,-900 673.545,-900"/>
<text text-anchor="middle" x="634.321" y="-879" font-family="sans" font-size="10.00">index_original_bam</text>
</g>
<!-- 18&#45;&gt;12 -->
<g id="edge23" class="edge"><title>18&#45;&gt;12</title>
<path fill="none" stroke="grey" stroke-width="2" d="M653.85,-863.697C663.703,-854.965 675.807,-844.24 686.518,-834.75"/>
<polygon fill="grey" stroke="grey" stroke-width="2" points="688.855,-837.356 694.018,-828.104 684.212,-832.117 688.855,-837.356"/>
</g>
<!-- 19&#45;&gt;12 -->
<g id="edge24" class="edge"><title>19&#45;&gt;12</title>
<path fill="none" stroke="grey" stroke-width="2" d="M660.311,-935.979C672.426,-926.737 685.977,-914.28 694.321,-900 705.316,-881.184 709.978,-856.808 711.941,-838.325"/>
<polygon fill="grey" stroke="grey" stroke-width="2" points="715.441,-838.473 712.811,-828.21 708.466,-837.873 715.441,-838.473"/>
</g>
<!-- 19&#45;&gt;18 -->
<g id="edge28" class="edge"><title>19&#45;&gt;18</title>
<path fill="none" stroke="grey" stroke-width="2" d="M634.321,-935.697C634.321,-927.983 634.321,-918.712 634.321,-910.112"/>
<polygon fill="grey" stroke="grey" stroke-width="2" points="637.822,-910.104 634.321,-900.104 630.822,-910.104 637.822,-910.104"/>
</g>
<!-- 20&#45;&gt;13 -->
<g id="edge25" class="edge"><title>20&#45;&gt;13</title>
<path fill="none" stroke="grey" stroke-width="2" d="M1064.83,-935.79C1066.08,-916.975 1070.17,-886.509 1083.32,-864 1089.91,-852.732 1099.73,-842.599 1109.54,-834.286"/>
<polygon fill="grey" stroke="grey" stroke-width="2" points="1111.73,-837.013 1117.33,-828.021 1107.34,-831.557 1111.73,-837.013"/>
</g>
<!-- 21 -->
<g id="node22" class="node"><title>21</title>
<path fill="none" stroke="#56d882" stroke-width="2" d="M1182.55,-900C1182.55,-900 1104.1,-900 1104.1,-900 1098.1,-900 1092.1,-894 1092.1,-888 1092.1,-888 1092.1,-876 1092.1,-876 1092.1,-870 1098.1,-864 1104.1,-864 1104.1,-864 1182.55,-864 1182.55,-864 1188.55,-864 1194.55,-870 1194.55,-876 1194.55,-876 1194.55,-888 1194.55,-888 1194.55,-894 1188.55,-900 1182.55,-900"/>
<text text-anchor="middle" x="1143.32" y="-879" font-family="sans" font-size="10.00">index_original_bam</text>
</g>
<!-- 20&#45;&gt;21 -->
<g id="edge31" class="edge"><title>20&#45;&gt;21</title>
<path fill="none" stroke="grey" stroke-width="2" d="M1083.85,-935.697C1093.7,-926.965 1105.81,-916.24 1116.52,-906.75"/>
<polygon fill="grey" stroke="grey" stroke-width="2" points="1118.85,-909.356 1124.02,-900.104 1114.21,-904.117 1118.85,-909.356"/>
</g>
<!-- 21&#45;&gt;13 -->
<g id="edge26" class="edge"><title>21&#45;&gt;13</title>
<path fill="none" stroke="grey" stroke-width="2" d="M1143.32,-863.697C1143.32,-855.983 1143.32,-846.712 1143.32,-838.112"/>
<polygon fill="grey" stroke="grey" stroke-width="2" points="1146.82,-838.104 1143.32,-828.104 1139.82,-838.104 1146.82,-838.104"/>
</g>
<!-- 22 -->
<g id="node23" class="node"><title>22</title>
<path fill="none" stroke="#afd856" stroke-width="2" d="M1080.74,-324C1080.74,-324 979.903,-324 979.903,-324 973.903,-324 967.903,-318 967.903,-312 967.903,-312 967.903,-300 967.903,-300 967.903,-294 973.903,-288 979.903,-288 979.903,-288 1080.74,-288 1080.74,-288 1086.74,-288 1092.74,-294 1092.74,-300 1092.74,-300 1092.74,-312 1092.74,-312 1092.74,-318 1086.74,-324 1080.74,-324"/>
<text text-anchor="middle" x="1030.32" y="-303" font-family="sans" font-size="10.00">annotate_vcf_with_gene</text>
</g>
<!-- 22&#45;&gt;17 -->
<g id="edge27" class="edge"><title>22&#45;&gt;17</title>
<path fill="none" stroke="grey" stroke-width="2" d="M1015.74,-287.697C1008.66,-279.305 1000.04,-269.07 992.276,-259.861"/>
<polygon fill="grey" stroke="grey" stroke-width="2" points="994.859,-257.495 985.738,-252.104 989.507,-262.006 994.859,-257.495"/>
</g>
<!-- 23 -->
<g id="node24" class="node"><title>23</title>
<path fill="none" stroke="#d8ac56" stroke-width="2" d="M1252.97,-396C1252.97,-396 1125.67,-396 1125.67,-396 1119.67,-396 1113.67,-390 1113.67,-384 1113.67,-384 1113.67,-372 1113.67,-372 1113.67,-366 1119.67,-360 1125.67,-360 1125.67,-360 1252.97,-360 1252.97,-360 1258.97,-360 1264.97,-366 1264.97,-372 1264.97,-372 1264.97,-384 1264.97,-384 1264.97,-390 1258.97,-396 1252.97,-396"/>
<text text-anchor="middle" x="1189.32" y="-375" font-family="sans" font-size="10.00">compress_and_index_bed_file</text>
</g>
<!-- 23&#45;&gt;22 -->
<g id="edge32" class="edge"><title>23&#45;&gt;22</title>
<path fill="none" stroke="grey" stroke-width="2" d="M1150.43,-359.876C1128.69,-350.307 1101.42,-338.3 1078.36,-328.148"/>
<polygon fill="grey" stroke="grey" stroke-width="2" points="1079.65,-324.894 1069.09,-324.068 1076.83,-331.301 1079.65,-324.894"/>
</g>
<!-- 24 -->
<g id="node25" class="node"><title>24</title>
<path fill="none" stroke="#56d8a9" stroke-width="2" d="M1083.22,-396C1083.22,-396 977.422,-396 977.422,-396 971.422,-396 965.422,-390 965.422,-384 965.422,-384 965.422,-372 965.422,-372 965.422,-366 971.422,-360 977.422,-360 977.422,-360 1083.22,-360 1083.22,-360 1089.22,-360 1095.22,-366 1095.22,-372 1095.22,-372 1095.22,-384 1095.22,-384 1095.22,-390 1089.22,-396 1083.22,-396"/>
<text text-anchor="middle" x="1030.32" y="-375" font-family="sans" font-size="10.00">compress_and_index_vcf</text>
</g>
<!-- 24&#45;&gt;22 -->
<g id="edge33" class="edge"><title>24&#45;&gt;22</title>
<path fill="none" stroke="grey" stroke-width="2" d="M1030.32,-359.697C1030.32,-351.983 1030.32,-342.712 1030.32,-334.112"/>
<polygon fill="grey" stroke="grey" stroke-width="2" points="1033.82,-334.104 1030.32,-324.104 1026.82,-334.104 1033.82,-334.104"/>
</g>
<!-- 25 -->
<g id="node26" class="node"><title>25</title>
<path fill="none" stroke="#d86e56" stroke-width="2" d="M1286.63,-468C1286.63,-468 1232.01,-468 1232.01,-468 1226.01,-468 1220.01,-462 1220.01,-456 1220.01,-456 1220.01,-444 1220.01,-444 1220.01,-438 1226.01,-432 1232.01,-432 1232.01,-432 1286.63,-432 1286.63,-432 1292.63,-432 1298.63,-438 1298.63,-444 1298.63,-444 1298.63,-456 1298.63,-456 1298.63,-462 1292.63,-468 1286.63,-468"/>
<text text-anchor="middle" x="1259.32" y="-447" font-family="sans" font-size="10.00">hard_filter_vcf</text>
</g>
<!-- 25&#45;&gt;24 -->
<g id="edge34" class="edge"><title>25&#45;&gt;24</title>
<path fill="none" stroke="grey" stroke-width="2" d="M1219.95,-436.967C1185.93,-426.566 1136.06,-411.322 1096,-399.076"/>
<polygon fill="grey" stroke="grey" stroke-width="2" points="1096.89,-395.689 1086.3,-396.113 1094.84,-402.383 1096.89,-395.689"/>
</g>
<!-- 26 -->
<g id="node27" class="node"><title>26</title>
<path fill="none" stroke="#59d856" stroke-width="2" d="M1396.01,-540C1396.01,-540 1352.64,-540 1352.64,-540 1346.64,-540 1340.64,-534 1340.64,-528 1340.64,-528 1340.64,-516 1340.64,-516 1340.64,-510 1346.64,-504 1352.64,-504 1352.64,-504 1396.01,-504 1396.01,-504 1402.01,-504 1408.01,-510 1408.01,-516 1408.01,-516 1408.01,-528 1408.01,-528 1408.01,-534 1402.01,-540 1396.01,-540"/>
<text text-anchor="middle" x="1374.32" y="-519" font-family="sans" font-size="10.00">collect_vcfs</text>
</g>
<!-- 26&#45;&gt;25 -->
<g id="edge35" class="edge"><title>26&#45;&gt;25</title>
<path fill="none" stroke="grey" stroke-width="2" d="M1346.19,-503.876C1331.15,-494.724 1312.45,-483.342 1296.26,-473.485"/>
<polygon fill="grey" stroke="grey" stroke-width="2" points="1297.92,-470.4 1287.56,-468.19 1294.28,-476.379 1297.92,-470.4"/>
</g>
<!-- 27 -->
<g id="node28" class="node"><title>27</title>
<path fill="none" stroke="#56d8c1" stroke-width="2" d="M1405.37,-612C1405.37,-612 1343.27,-612 1343.27,-612 1337.27,-612 1331.27,-606 1331.27,-600 1331.27,-600 1331.27,-588 1331.27,-588 1331.27,-582 1337.27,-576 1343.27,-576 1343.27,-576 1405.37,-576 1405.37,-576 1411.37,-576 1417.37,-582 1417.37,-588 1417.37,-588 1417.37,-600 1417.37,-600 1417.37,-606 1411.37,-612 1405.37,-612"/>
<text text-anchor="middle" x="1374.32" y="-591" font-family="sans" font-size="10.00">genotype_gvcfs</text>
</g>
<!-- 27&#45;&gt;26 -->
<g id="edge36" class="edge"><title>27&#45;&gt;26</title>
<path fill="none" stroke="grey" stroke-width="2" d="M1374.32,-575.697C1374.32,-567.983 1374.32,-558.712 1374.32,-550.112"/>
<polygon fill="grey" stroke="grey" stroke-width="2" points="1377.82,-550.104 1374.32,-540.104 1370.82,-550.104 1377.82,-550.104"/>
</g>
<!-- 28 -->
<g id="node29" class="node"><title>28</title>
<path fill="none" stroke="#56d8c1" stroke-width="2" d="M1301.37,-612C1301.37,-612 1239.27,-612 1239.27,-612 1233.27,-612 1227.27,-606 1227.27,-600 1227.27,-600 1227.27,-588 1227.27,-588 1227.27,-582 1233.27,-576 1239.27,-576 1239.27,-576 1301.37,-576 1301.37,-576 1307.37,-576 1313.37,-582 1313.37,-588 1313.37,-588 1313.37,-600 1313.37,-600 1313.37,-606 1307.37,-612 1301.37,-612"/>
<text text-anchor="middle" x="1270.32" y="-591" font-family="sans" font-size="10.00">genotype_gvcfs</text>
</g>
<!-- 28&#45;&gt;26 -->
<g id="edge37" class="edge"><title>28&#45;&gt;26</title>
<path fill="none" stroke="grey" stroke-width="2" d="M1295.76,-575.876C1309.11,-566.893 1325.65,-555.763 1340.1,-546.034"/>
<polygon fill="grey" stroke="grey" stroke-width="2" points="1342.44,-548.677 1348.78,-540.19 1338.53,-542.87 1342.44,-548.677"/>
</g>
<!-- 29 -->
<g id="node30" class="node"><title>29</title>
<path fill="none" stroke="#56d8c1" stroke-width="2" d="M1509.37,-612C1509.37,-612 1447.27,-612 1447.27,-612 1441.27,-612 1435.27,-606 1435.27,-600 1435.27,-600 1435.27,-588 1435.27,-588 1435.27,-582 1441.27,-576 1447.27,-576 1447.27,-576 1509.37,-576 1509.37,-576 1515.37,-576 1521.37,-582 1521.37,-588 1521.37,-588 1521.37,-600 1521.37,-600 1521.37,-606 1515.37,-612 1509.37,-612"/>
<text text-anchor="middle" x="1478.32" y="-591" font-family="sans" font-size="10.00">genotype_gvcfs</text>
</g>
<!-- 29&#45;&gt;26 -->
<g id="edge38" class="edge"><title>29&#45;&gt;26</title>
<path fill="none" stroke="grey" stroke-width="2" d="M1452.88,-575.876C1439.53,-566.893 1423,-555.763 1408.54,-546.034"/>
<polygon fill="grey" stroke="grey" stroke-width="2" points="1410.11,-542.87 1399.86,-540.19 1406.2,-548.677 1410.11,-542.87"/>
</g>
<!-- 30 -->
<g id="node31" class="node"><title>30</title>
<path fill="none" stroke="#56d8c1" stroke-width="2" d="M1699.37,-612C1699.37,-612 1637.27,-612 1637.27,-612 1631.27,-612 1625.27,-606 1625.27,-600 1625.27,-600 1625.27,-588 1625.27,-588 1625.27,-582 1631.27,-576 1637.27,-576 1637.27,-576 1699.37,-576 1699.37,-576 1705.37,-576 1711.37,-582 1711.37,-588 1711.37,-588 1711.37,-600 1711.37,-600 1711.37,-606 1705.37,-612 1699.37,-612"/>
<text text-anchor="middle" x="1668.32" y="-591" font-family="sans" font-size="10.00">genotype_gvcfs</text>
</g>
<!-- 30&#45;&gt;26 -->
<g id="edge39" class="edge"><title>30&#45;&gt;26</title>
<path fill="none" stroke="grey" stroke-width="2" d="M1625.26,-582.746C1569.85,-569.555 1474.12,-546.761 1418.28,-533.466"/>
<polygon fill="grey" stroke="grey" stroke-width="2" points="1418.88,-530.011 1408.34,-531.099 1417.26,-536.82 1418.88,-530.011"/>
</g>
<!-- 31 -->
<g id="node32" class="node"><title>31</title>
<path fill="none" stroke="#d89556" stroke-width="2" d="M1234.35,-684C1234.35,-684 1002.29,-684 1002.29,-684 996.294,-684 990.294,-678 990.294,-672 990.294,-672 990.294,-660 990.294,-660 990.294,-654 996.294,-648 1002.29,-648 1002.29,-648 1234.35,-648 1234.35,-648 1240.35,-648 1246.35,-654 1246.35,-660 1246.35,-660 1246.35,-672 1246.35,-672 1246.35,-678 1240.35,-684 1234.35,-684"/>
<text text-anchor="middle" x="1118.32" y="-668" font-family="sans" font-size="10.00">create_genomics_db</text>
<text text-anchor="middle" x="1118.32" y="-658" font-family="sans" font-size="10.00">worksheet: 181129_NB551415_0005_AHWW37BGX7</text>
</g>
<!-- 31&#45;&gt;27 -->
<g id="edge40" class="edge"><title>31&#45;&gt;27</title>
<path fill="none" stroke="grey" stroke-width="2" d="M1188.48,-647.91C1225.58,-638.608 1272.05,-626.534 1321.63,-612.122"/>
<polygon fill="grey" stroke="grey" stroke-width="2" points="1322.64,-615.473 1331.26,-609.306 1320.67,-608.755 1322.64,-615.473"/>
</g>
<!-- 32 -->
<g id="node33" class="node"><title>32</title>
<path fill="none" stroke="#569ad8" stroke-width="2" d="M1589.83,-828C1589.83,-828 1478.81,-828 1478.81,-828 1472.81,-828 1466.81,-822 1466.81,-816 1466.81,-816 1466.81,-804 1466.81,-804 1466.81,-798 1472.81,-792 1478.81,-792 1478.81,-792 1589.83,-792 1589.83,-792 1595.83,-792 1601.83,-798 1601.83,-804 1601.83,-804 1601.83,-816 1601.83,-816 1601.83,-822 1595.83,-828 1589.83,-828"/>
<text text-anchor="middle" x="1534.32" y="-807" font-family="sans" font-size="10.00">split_bed_by_chromosome</text>
</g>
<!-- 32&#45;&gt;27 -->
<g id="edge41" class="edge"><title>32&#45;&gt;27</title>
<path fill="none" stroke="grey" stroke-width="2" d="M1602.16,-806.982C1682.37,-802.999 1808.76,-791.163 1838.32,-756 1869.21,-719.26 1870.75,-683.388 1838.32,-648 1808.85,-615.843 1504.68,-620.587 1427.84,-611.527"/>
<polygon fill="grey" stroke="grey" stroke-width="2" points="1427.95,-608.003 1417.53,-609.946 1426.89,-614.922 1427.95,-608.003"/>
</g>
<!-- 32&#45;&gt;28 -->
<g id="edge42" class="edge"><title>32&#45;&gt;28</title>
<path fill="none" stroke="grey" stroke-width="2" d="M1602.01,-795.656C1702.93,-772.962 1874.01,-722.001 1805.32,-648 1770.32,-610.291 1409.02,-621.32 1323.51,-611.485"/>
<polygon fill="grey" stroke="grey" stroke-width="2" points="1323.93,-608.009 1313.52,-609.989 1322.9,-614.932 1323.93,-608.009"/>
</g>
<!-- 32&#45;&gt;29 -->
<g id="edge45" class="edge"><title>32&#45;&gt;29</title>
<path fill="none" stroke="grey" stroke-width="2" d="M1602.04,-808.509C1691.48,-806.256 1841.72,-796.376 1876.32,-756 1907.56,-719.552 1907.94,-684.112 1876.32,-648 1873.5,-644.773 1639.57,-615.157 1531.71,-601.654"/>
<polygon fill="grey" stroke="grey" stroke-width="2" points="1532.04,-598.168 1521.68,-600.399 1531.17,-605.114 1532.04,-598.168"/>
</g>
<!-- 32&#45;&gt;30 -->
<g id="edge46" class="edge"><title>32&#45;&gt;30</title>
<path fill="none" stroke="grey" stroke-width="2" d="M1601.94,-809.312C1696.92,-808.143 1862.5,-799.689 1900.32,-756 1931.74,-719.708 1930.25,-685.531 1900.32,-648 1878.41,-620.516 1783.13,-606.153 1721.7,-599.611"/>
<polygon fill="grey" stroke="grey" stroke-width="2" points="1721.7,-596.093 1711.39,-598.553 1720.98,-603.056 1721.7,-596.093"/>
</g>
<!-- 32&#45;&gt;31 -->
<g id="edge48" class="edge"><title>32&#45;&gt;31</title>
<path fill="none" stroke="grey" stroke-width="2" d="M1544.03,-791.648C1553.67,-771.842 1564.7,-739.654 1547.32,-720 1547.32,-720 1381.94,-699.569 1256.55,-684.077"/>
<polygon fill="grey" stroke="grey" stroke-width="2" points="1256.81,-680.583 1246.45,-682.83 1255.95,-687.53 1256.81,-680.583"/>
</g>
<!-- 33 -->
<g id="node34" class="node"><title>33</title>
<path fill="none" stroke="#d89556" stroke-width="2" d="M959.349,-684C959.349,-684 727.294,-684 727.294,-684 721.294,-684 715.294,-678 715.294,-672 715.294,-672 715.294,-660 715.294,-660 715.294,-654 721.294,-648 727.294,-648 727.294,-648 959.349,-648 959.349,-648 965.349,-648 971.349,-654 971.349,-660 971.349,-660 971.349,-672 971.349,-672 971.349,-678 965.349,-684 959.349,-684"/>
<text text-anchor="middle" x="843.321" y="-668" font-family="sans" font-size="10.00">create_genomics_db</text>
<text text-anchor="middle" x="843.321" y="-658" font-family="sans" font-size="10.00">worksheet: 181129_NB551415_0005_AHWW37BGX7</text>
</g>
<!-- 32&#45;&gt;33 -->
<g id="edge52" class="edge"><title>32&#45;&gt;33</title>
<path fill="none" stroke="grey" stroke-width="2" d="M1466.54,-805.359C1412.2,-800.099 1335.37,-787.268 1275.32,-756 1254.69,-745.255 1258.31,-730.036 1237.32,-720 1231.39,-717.162 1092.67,-698.892 981.494,-684.587"/>
<polygon fill="grey" stroke="grey" stroke-width="2" points="981.872,-681.107 971.508,-683.303 980.98,-688.05 981.872,-681.107"/>
</g>
<!-- 34 -->
<g id="node35" class="node"><title>34</title>
<path fill="none" stroke="#d89556" stroke-width="2" d="M1509.35,-684C1509.35,-684 1277.29,-684 1277.29,-684 1271.29,-684 1265.29,-678 1265.29,-672 1265.29,-672 1265.29,-660 1265.29,-660 1265.29,-654 1271.29,-648 1277.29,-648 1277.29,-648 1509.35,-648 1509.35,-648 1515.35,-648 1521.35,-654 1521.35,-660 1521.35,-660 1521.35,-672 1521.35,-672 1521.35,-678 1515.35,-684 1509.35,-684"/>
<text text-anchor="middle" x="1393.32" y="-668" font-family="sans" font-size="10.00">create_genomics_db</text>
<text text-anchor="middle" x="1393.32" y="-658" font-family="sans" font-size="10.00">worksheet: 181129_NB551415_0005_AHWW37BGX7</text>
</g>
<!-- 32&#45;&gt;34 -->
<g id="edge55" class="edge"><title>32&#45;&gt;34</title>
<path fill="none" stroke="grey" stroke-width="2" d="M1554.19,-791.936C1573.52,-773.248 1597.63,-742.893 1580.32,-720 1569.86,-706.16 1537.63,-694.887 1502.81,-686.352"/>
<polygon fill="grey" stroke="grey" stroke-width="2" points="1503.47,-682.912 1492.93,-684.017 1501.86,-689.724 1503.47,-682.912"/>
</g>
<!-- 35 -->
<g id="node36" class="node"><title>35</title>
<path fill="none" stroke="#d89556" stroke-width="2" d="M1784.35,-684C1784.35,-684 1552.29,-684 1552.29,-684 1546.29,-684 1540.29,-678 1540.29,-672 1540.29,-672 1540.29,-660 1540.29,-660 1540.29,-654 1546.29,-648 1552.29,-648 1552.29,-648 1784.35,-648 1784.35,-648 1790.35,-648 1796.35,-654 1796.35,-660 1796.35,-660 1796.35,-672 1796.35,-672 1796.35,-678 1790.35,-684 1784.35,-684"/>
<text text-anchor="middle" x="1668.32" y="-668" font-family="sans" font-size="10.00">create_genomics_db</text>
<text text-anchor="middle" x="1668.32" y="-658" font-family="sans" font-size="10.00">worksheet: 181129_NB551415_0005_AHWW37BGX7</text>
</g>
<!-- 32&#45;&gt;35 -->
<g id="edge58" class="edge"><title>32&#45;&gt;35</title>
<path fill="none" stroke="grey" stroke-width="2" d="M1601.96,-797.606C1646.74,-788.526 1699.65,-774.307 1713.32,-756 1728.28,-735.972 1712.05,-710.227 1695.06,-691.584"/>
<polygon fill="grey" stroke="grey" stroke-width="2" points="1697.28,-688.84 1687.82,-684.066 1692.23,-693.696 1697.28,-688.84"/>
</g>
<!-- 32&#45;&gt;36 -->
<g id="edge61" class="edge"><title>32&#45;&gt;36</title>
<path fill="none" stroke="grey" stroke-width="2" d="M1477.72,-791.89C1445.03,-781.824 1403.21,-768.628 1366.32,-756 1366.22,-755.966 1366.13,-755.933 1366.03,-755.899"/>
<polygon fill="grey" stroke="grey" stroke-width="2" points="1367.27,-752.625 1356.67,-752.619 1364.95,-759.231 1367.27,-752.625"/>
</g>
<!-- 32&#45;&gt;37 -->
<g id="edge63" class="edge"><title>32&#45;&gt;37</title>
<path fill="none" stroke="grey" stroke-width="2" d="M1466.55,-806.671C1375.11,-802.386 1207.34,-790.488 1056.63,-755.693"/>
<polygon fill="grey" stroke="grey" stroke-width="2" points="1057.27,-752.247 1046.73,-753.368 1055.67,-759.061 1057.27,-752.247"/>
</g>
<!-- 32&#45;&gt;39 -->
<g id="edge65" class="edge"><title>32&#45;&gt;39</title>
<path fill="none" stroke="grey" stroke-width="2" d="M1466.63,-804.916C1341.1,-796.988 1075.81,-778.477 965.579,-755.584"/>
<polygon fill="grey" stroke="grey" stroke-width="2" points="966.235,-752.145 955.718,-753.428 964.74,-758.984 966.235,-752.145"/>
</g>
<!-- 32&#45;&gt;40 -->
<g id="edge67" class="edge"><title>32&#45;&gt;40</title>
<path fill="none" stroke="grey" stroke-width="2" d="M1466.73,-799.64C1407.15,-790.701 1318.25,-775.684 1242.32,-756 1241.07,-755.676 1239.81,-755.337 1238.54,-754.985"/>
<polygon fill="grey" stroke="grey" stroke-width="2" points="1239.31,-751.561 1228.72,-752.073 1237.32,-758.272 1239.31,-751.561"/>
</g>
<!-- 32&#45;&gt;41 -->
<g id="edge69" class="edge"><title>32&#45;&gt;41</title>
<path fill="none" stroke="grey" stroke-width="2" d="M1526.41,-791.697C1522.77,-783.728 1518.37,-774.1 1514.33,-765.264"/>
<polygon fill="grey" stroke="grey" stroke-width="2" points="1517.48,-763.744 1510.14,-756.104 1511.12,-766.654 1517.48,-763.744"/>
</g>
<!-- 32&#45;&gt;42 -->
<g id="edge71" class="edge"><title>32&#45;&gt;42</title>
<path fill="none" stroke="grey" stroke-width="2" d="M1466.71,-804.228C1390.93,-797.879 1264.5,-784.286 1147.59,-755.724"/>
<polygon fill="grey" stroke="grey" stroke-width="2" points="1148.3,-752.295 1137.75,-753.28 1146.61,-759.089 1148.3,-752.295"/>
</g>
<!-- 32&#45;&gt;43 -->
<g id="edge73" class="edge"><title>32&#45;&gt;43</title>
<path fill="none" stroke="grey" stroke-width="2" d="M1504.23,-791.876C1488,-782.639 1467.78,-771.131 1450.35,-761.212"/>
<polygon fill="grey" stroke="grey" stroke-width="2" points="1451.95,-758.094 1441.53,-756.19 1448.49,-764.178 1451.95,-758.094"/>
</g>
<!-- 32&#45;&gt;44 -->
<g id="edge75" class="edge"><title>32&#45;&gt;44</title>
<path fill="none" stroke="grey" stroke-width="2" d="M1567.1,-791.876C1584.95,-782.554 1607.22,-770.919 1626.32,-760.939"/>
<polygon fill="grey" stroke="grey" stroke-width="2" points="1628.17,-763.922 1635.42,-756.19 1624.93,-757.718 1628.17,-763.922"/>
</g>
<!-- 33&#45;&gt;28 -->
<g id="edge43" class="edge"><title>33&#45;&gt;28</title>
<path fill="none" stroke="grey" stroke-width="2" d="M947.231,-647.966C1032.58,-633.973 1150,-614.725 1217.25,-603.701"/>
<polygon fill="grey" stroke="grey" stroke-width="2" points="1217.89,-607.141 1227.2,-602.07 1216.76,-600.234 1217.89,-607.141"/>
</g>
<!-- 34&#45;&gt;29 -->
<g id="edge44" class="edge"><title>34&#45;&gt;29</title>
<path fill="none" stroke="grey" stroke-width="2" d="M1414.33,-647.697C1425.04,-638.881 1438.21,-628.032 1449.82,-618.474"/>
<polygon fill="grey" stroke="grey" stroke-width="2" points="1452.06,-621.163 1457.55,-612.104 1447.61,-615.76 1452.06,-621.163"/>
</g>
<!-- 35&#45;&gt;30 -->
<g id="edge47" class="edge"><title>35&#45;&gt;30</title>
<path fill="none" stroke="grey" stroke-width="2" d="M1668.32,-647.697C1668.32,-639.983 1668.32,-630.712 1668.32,-622.112"/>
<polygon fill="grey" stroke="grey" stroke-width="2" points="1671.82,-622.104 1668.32,-612.104 1664.82,-622.104 1671.82,-622.104"/>
</g>
<!-- 36&#45;&gt;31 -->
<g id="edge49" class="edge"><title>36&#45;&gt;31</title>
<path fill="none" stroke="grey" stroke-width="2" d="M1283.74,-724.324C1254.02,-714.024 1211.52,-699.298 1177.05,-687.35"/>
<polygon fill="grey" stroke="grey" stroke-width="2" points="1178.15,-684.028 1167.55,-684.06 1175.86,-690.642 1178.15,-684.028"/>
</g>
<!-- 37&#45;&gt;31 -->
<g id="edge50" class="edge"><title>37&#45;&gt;31</title>
<path fill="none" stroke="grey" stroke-width="2" d="M1036.74,-719.876C1050.73,-710.808 1068.1,-699.552 1083.21,-689.759"/>
<polygon fill="grey" stroke="grey" stroke-width="2" points="1085.31,-692.566 1091.8,-684.19 1081.5,-686.692 1085.31,-692.566"/>
</g>
<!-- 38 -->
<g id="node39" class="node"><title>38</title>
<path fill="none" stroke="#56d89a" stroke-width="2" d="M1569.15,-900C1569.15,-900 1499.49,-900 1499.49,-900 1493.49,-900 1487.49,-894 1487.49,-888 1487.49,-888 1487.49,-876 1487.49,-876 1487.49,-870 1493.49,-864 1499.49,-864 1499.49,-864 1569.15,-864 1569.15,-864 1575.15,-864 1581.15,-870 1581.15,-876 1581.15,-876 1581.15,-888 1581.15,-888 1581.15,-894 1575.15,-900 1569.15,-900"/>
<text text-anchor="middle" x="1534.32" y="-884" font-family="sans" font-size="10.00">sort_capture_bed</text>
<text text-anchor="middle" x="1534.32" y="-874" font-family="sans" font-size="10.00">panel: NIPD1</text>
</g>
<!-- 38&#45;&gt;32 -->
<g id="edge51" class="edge"><title>38&#45;&gt;32</title>
<path fill="none" stroke="grey" stroke-width="2" d="M1534.32,-863.697C1534.32,-855.983 1534.32,-846.712 1534.32,-838.112"/>
<polygon fill="grey" stroke="grey" stroke-width="2" points="1537.82,-838.104 1534.32,-828.104 1530.82,-838.104 1537.82,-838.104"/>
</g>
<!-- 39&#45;&gt;33 -->
<g id="edge53" class="edge"><title>39&#45;&gt;33</title>
<path fill="none" stroke="grey" stroke-width="2" d="M900.535,-719.697C891.147,-711.05 879.637,-700.449 869.408,-691.027"/>
<polygon fill="grey" stroke="grey" stroke-width="2" points="871.619,-688.305 861.892,-684.104 866.876,-693.454 871.619,-688.305"/>
</g>
<!-- 40&#45;&gt;33 -->
<g id="edge54" class="edge"><title>40&#45;&gt;33</title>
<path fill="none" stroke="grey" stroke-width="2" d="M1156.11,-722.928C1152.82,-721.861 1149.53,-720.865 1146.32,-720 1092.8,-705.556 1032.86,-694.112 980.509,-685.609"/>
<polygon fill="grey" stroke="grey" stroke-width="2" points="980.914,-682.129 970.486,-684.001 979.805,-689.041 980.914,-682.129"/>
</g>
<!-- 41&#45;&gt;34 -->
<g id="edge56" class="edge"><title>41&#45;&gt;34</title>
<path fill="none" stroke="grey" stroke-width="2" d="M1475.66,-719.876C1461.54,-710.808 1444.01,-699.552 1428.76,-689.759"/>
<polygon fill="grey" stroke="grey" stroke-width="2" points="1430.39,-686.648 1420.09,-684.19 1426.61,-692.538 1430.39,-686.648"/>
</g>
<!-- 42&#45;&gt;34 -->
<g id="edge57" class="edge"><title>42&#45;&gt;34</title>
<path fill="none" stroke="grey" stroke-width="2" d="M1137.57,-723.063C1140.85,-721.967 1144.13,-720.928 1147.32,-720 1193.34,-706.612 1245.09,-694.966 1289.22,-686.027"/>
<polygon fill="grey" stroke="grey" stroke-width="2" points="1289.97,-689.445 1299.09,-684.045 1288.6,-682.581 1289.97,-689.445"/>
</g>
<!-- 43&#45;&gt;35 -->
<g id="edge59" class="edge"><title>43&#45;&gt;35</title>
<path fill="none" stroke="grey" stroke-width="2" d="M1447.61,-723.179C1450.88,-722.058 1454.15,-720.981 1457.32,-720 1497.9,-707.447 1543.54,-695.695 1581.97,-686.464"/>
<polygon fill="grey" stroke="grey" stroke-width="2" points="1583.17,-689.774 1592.09,-684.05 1581.55,-682.965 1583.17,-689.774"/>
</g>
<!-- 44&#45;&gt;35 -->
<g id="edge60" class="edge"><title>44&#45;&gt;35</title>
<path fill="none" stroke="grey" stroke-width="2" d="M1668.32,-719.697C1668.32,-711.983 1668.32,-702.712 1668.32,-694.112"/>
<polygon fill="grey" stroke="grey" stroke-width="2" points="1671.82,-694.104 1668.32,-684.104 1664.82,-694.104 1671.82,-694.104"/>
</g>
</g>
</svg>
